<svg width="30" height="26" viewBox="0 0 30 26" fill="none" xmlns="http://www.w3.org/2000/svg">
<path d="M4.92104 19C5.24953 21 4.72521 25 2.61802e-07 25" stroke="#575756"/>
<path d="M24.079 19C23.7505 21 24.2748 25 29 25" stroke="#575756"/>
<path d="M15 4.5C19.0521 4.5 22.6996 5.65088 25.3203 7.48535C27.9423 9.3209 29.5 11.8086 29.5 14.5C29.5 17.1914 27.9423 19.6791 25.3203 21.5146C22.6996 23.3491 19.0521 24.5 15 24.5C10.9479 24.5 7.30036 23.3491 4.67969 21.5146C2.05771 19.6791 0.5 17.1914 0.5 14.5C0.5 11.8086 2.05771 9.3209 4.67969 7.48535C7.30036 5.65088 10.9479 4.5 15 4.5Z" fill="#575756" stroke="#575756"/>
<ellipse cx="15" cy="10.5" rx="15" ry="10.5" fill="#D9D9D9"/>
<path d="M26 12C26 12.9193 25.7155 13.8295 25.1627 14.6788C24.6099 15.5281 23.7996 16.2997 22.7782 16.9497C21.7567 17.5998 20.5441 18.1154 19.2095 18.4672C17.8749 18.8189 16.4445 19 15 19C13.5555 19 12.1251 18.8189 10.7905 18.4672C9.4559 18.1154 8.24327 17.5998 7.22182 16.9497C6.20038 16.2997 5.39013 15.5281 4.83732 14.6788C4.28452 13.8295 4 12.9193 4 12" stroke="white" stroke-width="0.5" stroke-linecap="round"/>
<ellipse cx="15" cy="12.5" rx="4" ry="2.5" fill="#575756"/>
</svg>
