<svg width="33" height="24" viewBox="0 0 33 24" fill="none" xmlns="http://www.w3.org/2000/svg">
<path d="M4 0.5H29C30.933 0.5 32.5 2.067 32.5 4V20C32.5 21.933 30.933 23.5 29 23.5H4C2.067 23.5 0.5 21.933 0.5 20V4C0.5 2.067 2.067 0.5 4 0.5Z" fill="url(#paint0_linear_287_3733)" stroke="#02923A"/>
<path d="M4 4H21" stroke="#575756"/>
<path d="M4 6H15" stroke="#575756"/>
<path d="M18.5793 18.8949C16.9316 18.8949 15.7188 17.19 15.7188 14.9473C15.7188 12.7046 16.9316 10.9998 18.5793 10.9998C20.227 10.9998 21.4399 12.7046 21.4399 14.9473C21.4399 17.19 20.227 18.8949 18.5793 18.8949ZM18.5793 11.9723C17.458 11.9723 16.8058 13.2424 16.8058 14.9473C16.8058 16.6522 17.458 17.9223 18.5793 17.9223C19.7006 17.9223 20.3528 16.6522 20.3528 14.9473C20.3528 13.2424 19.7006 11.9723 18.5793 11.9723Z" fill="#EB2316"/>
<path d="M11.7185 18.8949C10.0708 18.8949 8.85791 17.19 8.85791 14.9473C8.85791 12.7046 10.0708 10.9998 11.7185 10.9998C13.3661 10.9998 14.579 12.7046 14.579 14.9473C14.579 17.19 13.3661 18.8949 11.7185 18.8949ZM11.7185 11.9723C10.5971 11.9723 9.94492 13.2424 9.94492 14.9473C9.94492 16.6522 10.5971 17.9223 11.7185 17.9223C12.8398 17.9223 13.492 16.6522 13.492 14.9473C13.492 13.2424 12.8398 11.9723 11.7185 11.9723Z" fill="#EB2316"/>
<path d="M5.12825 13.8489C6.89035 13.8489 7.82861 14.7872 7.82861 16.3319C7.82861 17.9338 6.67295 18.895 5.17402 18.895C4.29297 18.895 3.58355 18.6661 3 18.2542V16.9612H3.10298C3.53778 17.5562 4.23576 17.9224 5.17402 17.9224C6.18093 17.9224 6.7416 17.2587 6.7416 16.3319C6.7416 15.4737 6.27247 14.8215 5.04815 14.8215C4.05268 14.8215 3.40048 15.0504 3.40048 15.0504V14.9703L4.30441 11.1143H7.66842V12.0868H5.15113L4.75066 13.8604C4.87652 13.8604 5.00239 13.8489 5.12825 13.8489Z" fill="#EB2316"/>
<path d="M25.3511 14C26.2977 14 27 14.6418 27 15.4925C27 16.3433 26.2977 16.9925 25.3511 16.9925H24.4122V17.5149H26.0153V18.1119H24.4122V19H23.687V18.1119H23V17.5149H23.687V16.9925H23V16.3955H23.687V14H25.3511ZM25.3511 14.597H24.4122V16.3955H25.3511C25.9389 16.3955 26.2748 16.0075 26.2748 15.4925C26.2748 14.9776 25.9466 14.597 25.3511 14.597Z" fill="#EB2316"/>
<defs>
<linearGradient id="paint0_linear_287_3733" x1="22" y1="11.5" x2="23" y2="-8" gradientUnits="userSpaceOnUse">
<stop stop-color="#FEFFFE"/>
<stop offset="1" stop-color="#D9D9D9"/>
</linearGradient>
</defs>
</svg>
