<svg width="30" height="29" viewBox="0 0 30 29" fill="none" xmlns="http://www.w3.org/2000/svg">
<path d="M2.59619 12.7953C2.59619 12.7953 13.8978 19.1657 14.8749 19.9008C15.8521 20.6359 17.2711 20.6402 19.5909 19.6887C21.9108 18.7371 28.2678 14.4831 28.2678 14.4831L26.4324 23.4512L17.9405 28.3218L12.82 26.9571L2.59619 21.0715V12.7953Z" fill="#C4C4C4"/>
<path d="M27.4571 11.4278L14.407 3.91389C13.1863 3.20909 11.0341 3.29842 9.62452 4.11223L2.11017 8.45083C1.52185 8.79044 1.1661 9.20483 1.02365 9.62354C1.01381 9.65266 1.00633 9.68178 0.998463 9.7109C0.970917 9.81597 0.957141 9.91907 0.958322 10.023C0.958322 10.0725 0.957928 10.1221 0.964225 10.1709C0.971702 10.2213 0.983116 10.2709 0.997677 10.3201C1.01735 10.3909 1.04569 10.4598 1.07992 10.5279C1.09527 10.5578 1.10589 10.5881 1.1236 10.6176C1.18027 10.7109 1.25622 10.7994 1.34161 10.8852C1.36641 10.91 1.39238 10.934 1.41953 10.958C1.52067 11.0477 1.63204 11.1339 1.76662 11.2118L3.86726 12.4211L3.90464 9.84312C3.9074 9.65817 3.9983 9.45236 4.12265 9.31974C4.16004 9.27999 4.19939 9.24537 4.2415 9.22175C4.42331 9.12022 4.56891 9.23395 4.56537 9.4744L4.51736 12.7954L5.57752 13.4057L5.64402 8.80108C5.64677 8.61612 5.73768 8.40991 5.86164 8.27768C5.89903 8.23794 5.93838 8.20331 5.98049 8.1797C6.1623 8.07817 6.3079 8.19189 6.30436 8.43194L6.22723 13.7799L8.72689 15.2191L14.8175 18.7258C16.0382 19.4306 18.1904 19.3412 19.6 18.5274L20.7172 17.8824L24.0976 15.931L24.0267 11.0371C24.1688 11.1654 24.2782 11.3889 24.2813 11.5908L24.342 15.7901L25.8074 14.944L25.7661 12.0795C25.9082 12.2078 26.0176 12.4313 26.0207 12.6332L26.0522 14.8027L27.1147 14.1892C27.2706 14.0995 27.4048 14.0031 27.5287 13.9039C27.5669 13.8736 27.6019 13.8433 27.6369 13.8126C27.7215 13.7378 27.7967 13.6619 27.8644 13.584C27.8935 13.5509 27.9266 13.5186 27.9525 13.4848C28.0206 13.3951 28.0757 13.3042 28.1222 13.2121C28.1552 13.1476 28.1788 13.083 28.2009 13.0177C28.2107 12.9874 28.2193 12.9575 28.2268 12.9272C28.372 12.3723 28.1324 11.8178 27.4571 11.4278ZM7.99651 13.0645C7.99297 13.305 7.84146 13.5844 7.66005 13.6859C7.4865 13.7827 7.34956 13.6796 7.34012 13.4616C7.33972 13.4514 7.33579 13.4443 7.33579 13.4337L7.41764 7.75902C7.42039 7.57406 7.5113 7.36825 7.63526 7.23564C7.67264 7.19589 7.71199 7.16125 7.7541 7.13764C7.93591 7.03611 8.08152 7.14985 8.07797 7.3899L7.99651 13.0645ZM9.7355 12.0221C9.73195 12.2625 9.58045 12.5419 9.39903 12.6434C9.22549 12.7403 9.08854 12.6375 9.0791 12.4191C9.0787 12.4089 9.07477 12.4018 9.07477 12.3912L9.15662 6.71658C9.15938 6.53162 9.25028 6.32541 9.37464 6.19318C9.41202 6.15344 9.45138 6.11881 9.49348 6.0952C9.67529 5.99367 9.82089 6.10739 9.81735 6.34744L9.7355 12.0221ZM17.1133 12.4727L17.0338 6.97629C17.1759 7.10458 17.2853 7.32771 17.2884 7.52999L17.3679 13.0264C17.2255 12.8981 17.1161 12.6745 17.1133 12.4727ZM18.8523 13.462L18.7728 7.96562C18.9149 8.09391 19.0243 8.31704 19.0274 8.51931L19.1069 14.0157C18.9648 13.887 18.8554 13.6639 18.8523 13.462ZM20.5921 14.4489L20.5126 8.95257C20.6546 9.08086 20.764 9.30439 20.7672 9.50627L20.8467 15.0026C20.7042 14.8743 20.5948 14.6508 20.5921 14.4489ZM22.331 15.4914L22.2516 9.99503C22.3936 10.1233 22.503 10.3468 22.5062 10.5487L22.5857 16.0451C22.4436 15.9164 22.3342 15.6933 22.331 15.4914Z" fill="#C4C4C4"/>
<path d="M5.78967 13.5296L5.57638 13.4069L5.56104 14.4769C5.56104 14.4879 5.56497 14.4946 5.56536 14.5048C5.68972 14.3726 5.78062 14.1664 5.78338 13.9814L5.78967 13.5296Z" fill="white"/>
<path d="M4.08041 12.5443L3.86713 12.4215L3.82227 15.5182C3.82227 15.5292 3.8262 15.5359 3.8266 15.5461C3.95095 15.4139 4.04185 15.2077 4.04461 15.0227L4.08041 12.5443Z" fill="white"/>
<path d="M9.49349 6.09638C9.45177 6.1196 9.41203 6.15462 9.37464 6.19437C9.37503 6.2046 9.37897 6.21169 9.37897 6.22231L9.29711 11.8969C9.29436 12.0819 9.20346 12.2877 9.0791 12.4203C9.08855 12.6387 9.22549 12.7414 9.39904 12.6446C9.58085 12.5431 9.73235 12.2637 9.7355 12.0233L9.81736 6.34863C9.8209 6.10858 9.6753 5.99485 9.49349 6.09638Z" fill="#D9D9D9"/>
<path d="M7.75373 7.13809C7.71163 7.1617 7.67227 7.19632 7.63489 7.23607C7.63528 7.2463 7.63922 7.25338 7.63922 7.264L7.55737 12.9386C7.55461 13.1236 7.46371 13.3294 7.33936 13.462C7.3488 13.6804 7.48574 13.7831 7.65929 13.6863C7.84109 13.5848 7.99261 13.3054 7.99575 13.065L8.078 7.39033C8.08115 7.15028 7.93515 7.03695 7.75373 7.13809Z" fill="#D9D9D9"/>
<path d="M5.7832 13.9809C5.78044 14.1659 5.68954 14.3717 5.56519 14.5043C5.57463 14.7227 5.71158 14.8254 5.88512 14.7286C6.06693 14.6271 6.21844 14.3477 6.22158 14.1073L6.22631 13.7806L5.7895 13.5292L5.7832 13.9809Z" fill="#575756"/>
<path d="M5.98011 8.18012C5.9384 8.20373 5.89865 8.23836 5.86127 8.27811C5.86166 8.28834 5.8656 8.29543 5.8656 8.30605L5.79004 13.5289L6.22685 13.7804L6.30398 8.43237C6.30752 8.19232 6.16153 8.07859 5.98011 8.18012Z" fill="#D9D9D9"/>
<path d="M4.04248 15.023C4.03972 15.2079 3.94882 15.4137 3.82446 15.5464C3.83391 15.7648 3.97085 15.8675 4.14439 15.7707C4.3262 15.6691 4.47771 15.3897 4.48086 15.1493L4.5147 12.796L4.07789 12.5446L4.04248 15.023Z" fill="#D9D9D9"/>
<path d="M4.23942 9.22183C4.19731 9.24504 4.15796 9.28007 4.12057 9.31981C4.12097 9.33004 4.1249 9.33712 4.1249 9.34775L4.07886 12.5436L4.51567 12.795L4.56368 9.47407C4.56683 9.23402 4.42123 9.12069 4.23942 9.22183Z" fill="#D9D9D9"/>
<path d="M17.1131 12.4733L17.0336 6.97693C17.0069 6.95253 16.9805 6.92538 16.9514 6.90925C16.7696 6.80772 16.624 6.92145 16.6275 7.1615L16.7098 12.8361C16.7133 13.0766 16.8648 13.356 17.0462 13.4575C17.228 13.559 17.3736 13.4453 17.3701 13.2053L17.3673 13.0274C17.2253 12.8987 17.1159 12.6752 17.1131 12.4733Z" fill="#D9D9D9"/>
<path d="M18.8519 13.4628L18.7724 7.96643C18.7456 7.94204 18.7193 7.91488 18.6901 7.89875C18.5083 7.79722 18.3627 7.91095 18.3663 8.151L18.4481 13.8256C18.4517 14.0661 18.6032 14.3455 18.7846 14.447C18.9664 14.5485 19.112 14.4348 19.1085 14.1947L19.1057 14.0169C18.9644 13.8878 18.855 13.6647 18.8519 13.4628Z" fill="#D9D9D9"/>
<path d="M20.5916 14.4495L20.5121 8.95313C20.485 8.92873 20.459 8.90158 20.4299 8.88544C20.2481 8.78391 20.1025 8.89765 20.106 9.1377L20.1883 14.8123C20.1918 15.0528 20.3433 15.3322 20.5247 15.4337C20.7065 15.5352 20.8521 15.4215 20.849 15.1814L20.8462 15.0036C20.7038 14.8749 20.5944 14.6514 20.5916 14.4495Z" fill="#D9D9D9"/>
<path d="M22.3308 15.4922L22.2513 9.99585C22.2245 9.97146 22.1982 9.9443 22.169 9.92817C21.9872 9.82664 21.8416 9.94036 21.8448 10.1804L21.927 15.855C21.9306 16.0955 22.0821 16.3749 22.2635 16.4764C22.4453 16.5779 22.5909 16.4642 22.5874 16.2242L22.5846 16.0463C22.4433 15.9172 22.3339 15.6941 22.3308 15.4922Z" fill="#D9D9D9"/>
<path d="M24.1051 16.5341L24.0256 11.0377C23.9984 11.0133 23.9724 10.9862 23.9433 10.97C23.7615 10.8685 23.6159 10.9822 23.6194 11.2223L23.7013 16.8969C23.7048 17.1374 23.8564 17.4168 24.0378 17.5183C24.2196 17.6198 24.3652 17.5061 24.3616 17.266L24.3589 17.0882C24.2176 16.9595 24.1082 16.736 24.1051 16.5341Z" fill="#D9D9D9"/>
<path d="M25.8441 17.5773L25.7646 12.0809C25.7378 12.0565 25.7115 12.0294 25.6823 12.0133C25.5005 11.9117 25.3549 12.0254 25.3585 12.2655L25.4403 17.9401C25.4439 18.1806 25.5954 18.46 25.7768 18.5615C25.9586 18.663 26.1042 18.5493 26.1007 18.3093L26.0979 18.1314C25.9562 18.0023 25.8468 17.7792 25.8441 17.5773Z" fill="#D9D9D9"/>
<path d="M19.2075 19.1711L16.1282 19.7578L6.15628 14.1237L0.712646 11.5831L1.73975 20.4579L1.75392 20.4591C1.75746 20.8861 2.00223 21.2945 2.52719 21.5979L14.56 28.5452C15.7276 29.2193 17.7865 29.1339 19.1351 28.3555L26.3236 24.2054C27.0883 23.7639 27.4519 23.1921 27.4235 22.6553L27.4397 22.6569L28.5156 14.372L19.2075 19.1711ZM4.18787 21.0706C4.03124 20.9486 3.90649 20.7027 3.90335 20.4827L3.82228 14.74C3.82228 14.7361 3.82386 14.7333 3.82386 14.7294C3.98048 14.8514 4.10522 15.0973 4.10837 15.3173L4.18944 21.06C4.18944 21.0643 4.18787 21.0667 4.18787 21.0706ZM5.90678 22.0718C5.75055 21.9498 5.62541 21.7038 5.62266 21.4838L5.54159 15.7411C5.54159 15.7372 5.54317 15.7344 5.54317 15.7305C5.6994 15.8525 5.82454 16.0984 5.82729 16.3184L5.90835 22.0611C5.90835 22.0655 5.90678 22.0678 5.90678 22.0718ZM7.6257 23.0709C7.46947 22.9489 7.34472 22.703 7.34157 22.483L7.26051 16.7403C7.26051 16.7363 7.26208 16.7336 7.26208 16.7296C7.4187 16.8516 7.54345 17.0976 7.5466 17.3176L7.62767 23.0603C7.62727 23.0646 7.6257 23.067 7.6257 23.0709ZM9.34462 24.126C9.18839 24.004 9.06325 23.758 9.06049 23.538L8.97942 17.7953C8.97942 17.7914 8.981 17.7886 8.981 17.7847C9.13762 17.9067 9.26237 18.1526 9.26552 18.3726L9.34658 24.1153C9.34658 24.1193 9.34462 24.1216 9.34462 24.126ZM11.0986 25.1806C10.9419 25.0586 10.8172 24.8127 10.8144 24.5927L10.7334 18.85C10.7334 18.846 10.7349 18.8433 10.7349 18.8393C10.8912 18.9613 11.0159 19.2073 11.0195 19.4273L11.1005 25.17C11.1001 25.1739 11.0986 25.1767 11.0986 25.1806ZM12.8175 26.2352C12.6612 26.1132 12.5361 25.8673 12.5333 25.6473L12.4523 19.9046C12.4523 19.9007 12.4538 19.8979 12.4538 19.894C12.6105 20.016 12.7352 20.2619 12.738 20.4819L12.819 26.2246C12.819 26.2289 12.8175 26.2313 12.8175 26.2352ZM19.5078 26.4328C19.505 26.6178 19.4141 26.8236 19.2898 26.9562C19.2894 26.9459 19.2854 26.9389 19.2854 26.9282L19.3673 21.2536C19.3701 21.0687 19.461 20.8628 19.5853 20.7302C19.5857 20.7405 19.5896 20.7475 19.5896 20.7582L19.5078 26.4328ZM21.2472 25.3907C21.2444 25.5757 21.1535 25.7815 21.0295 25.9141C21.0292 25.9039 21.0252 25.8968 21.0252 25.8862L21.1075 20.2116C21.1102 20.0266 21.2011 19.8204 21.3251 19.6882C21.3255 19.6984 21.3294 19.7055 21.3294 19.7161L21.2472 25.3907ZM23.0216 24.3483C23.0188 24.5332 22.9279 24.7391 22.8036 24.8717C22.8032 24.8614 22.7992 24.8544 22.7992 24.8437L22.8811 19.1691C22.8838 18.9842 22.9747 18.7783 23.0991 18.6457C23.0995 18.6559 23.1034 18.663 23.1034 18.6737L23.0216 24.3483ZM24.7606 23.3062C24.7578 23.4912 24.6669 23.697 24.5429 23.8296C24.5425 23.8194 24.5386 23.8123 24.5386 23.8017L24.6205 18.1271C24.6232 17.9421 24.7141 17.7359 24.8385 17.6037C24.8389 17.6139 24.8428 17.621 24.8428 17.6316L24.7606 23.3062Z" fill="#D9D9D9"/>
<path d="M3.90311 20.4835L3.82204 14.7408C3.82204 14.7369 3.82362 14.7341 3.82362 14.7302C3.80709 14.7172 3.79214 14.6991 3.77522 14.6892C3.59577 14.5865 3.45174 14.7014 3.45488 14.9446L3.53595 20.6873C3.5395 20.9305 3.68903 21.2135 3.86887 21.3162C4.04557 21.4169 4.18605 21.306 4.18763 21.0714C4.03061 20.949 3.90587 20.7035 3.90311 20.4835Z" fill="#C4C4C4"/>
<path d="M5.62211 21.4843L5.54105 15.7416C5.54105 15.7377 5.54262 15.735 5.54262 15.731C5.5261 15.718 5.51114 15.6999 5.49422 15.6901C5.31477 15.5874 5.17035 15.7023 5.17389 15.9455L5.25496 21.6882C5.2585 21.9314 5.40804 22.2143 5.58788 22.317C5.76457 22.4178 5.90506 22.3068 5.90663 22.0723C5.75001 21.9499 5.62526 21.7043 5.62211 21.4843Z" fill="#C4C4C4"/>
<path d="M7.34256 22.4831L7.2615 16.7404C7.2615 16.7365 7.26307 16.7337 7.26307 16.7298C7.24654 16.7168 7.23159 16.6987 7.21467 16.6889C7.03522 16.5862 6.89119 16.7011 6.89434 16.9443L6.9754 22.687C6.97894 22.9302 7.12849 23.2131 7.30833 23.3158C7.48502 23.4166 7.62551 23.3056 7.62708 23.0711C7.47046 22.9491 7.34571 22.7035 7.34256 22.4831Z" fill="#C4C4C4"/>
<path d="M9.06058 23.5379L8.97951 17.7952C8.97951 17.7913 8.98109 17.7885 8.98109 17.7846C8.96456 17.7716 8.9496 17.7535 8.93268 17.7437C8.75324 17.641 8.60921 17.7559 8.61236 17.9991L8.69342 23.7418C8.69696 23.985 8.8465 24.2679 9.02595 24.3706C9.20264 24.4714 9.34313 24.3604 9.34471 24.1259C9.18848 24.0035 9.06373 23.7579 9.06058 23.5379Z" fill="#C4C4C4"/>
<path d="M10.814 24.5931L10.7329 18.8504C10.7329 18.8465 10.7345 18.8437 10.7345 18.8398C10.718 18.8268 10.703 18.8087 10.6861 18.7989C10.5067 18.6961 10.3626 18.8111 10.3658 19.0543L10.4468 24.797C10.4504 25.0402 10.5999 25.3231 10.7798 25.4258C10.9565 25.5266 11.0969 25.4156 11.0985 25.181C10.9419 25.0591 10.8171 24.8131 10.814 24.5931Z" fill="#C4C4C4"/>
<path d="M12.5328 25.6478L12.4517 19.9051C12.4517 19.9012 12.4533 19.8984 12.4533 19.8945C12.4367 19.8815 12.4218 19.8634 12.4049 19.8535C12.2254 19.7508 12.081 19.8657 12.0845 20.1089L12.1656 25.8516C12.1691 26.0948 12.3187 26.3778 12.4985 26.4805C12.6752 26.5812 12.8157 26.4703 12.8173 26.2357C12.6607 26.1137 12.5359 25.8678 12.5328 25.6478Z" fill="#C4C4C4"/>
<path d="M29.1649 12.6826C29.1795 13.2819 28.7663 13.9166 27.9143 14.4086L19.7514 19.1214C18.2202 20.0053 15.8823 20.1025 14.5561 19.3367L0.89212 11.4477C0.321509 11.1183 0.0440749 10.6791 0.0161347 10.2171L0 10.2159V11.0762L0.0161347 11.0774C0.0432879 11.5402 0.320722 11.9801 0.89212 12.3099L14.5561 20.1989C15.8823 20.9643 18.2202 20.8675 19.7514 19.9832L27.9143 15.2704C28.7729 14.7745 29.1861 14.1339 29.1645 13.5306L29.1806 13.5318V12.6833L29.1649 12.6826Z" fill="#C4C4C4"/>
<path d="M1.11359 9.40983C1.29579 9.06628 1.62242 8.73257 2.10921 8.4516L9.62356 4.11299C11.0332 3.29918 13.1854 3.20985 14.4061 3.91465L27.4561 11.4286C27.8335 11.6466 28.0641 11.9186 28.1822 12.2109L28.2873 12.2715C28.4832 12.3849 28.6363 12.5136 28.7677 12.6489L29.1648 12.6824C29.153 12.2046 28.8756 11.7486 28.2873 11.4089L14.6233 3.51995C13.2971 2.75415 10.9592 2.85135 9.42798 3.73521L1.26509 8.44805C0.39265 8.95176 -0.0205522 9.60501 0.0164391 10.2169L0.25452 10.237C0.439476 9.94345 0.723607 9.66129 1.11359 9.40983Z" fill="#D9D9D9"/>
<path d="M0.892435 11.4473L14.5564 19.3363C15.8826 20.1017 18.2205 20.0049 19.7517 19.1211L27.9146 14.4082C28.7666 13.9163 29.1798 13.2816 29.1652 12.6822L28.7682 12.6488C28.6371 12.5134 28.4836 12.3847 28.2877 12.2714L28.1826 12.2108C28.4463 12.8636 28.087 13.6275 27.1134 14.1894L20.7162 17.883L19.599 18.528C18.1894 19.3418 16.0372 19.4312 14.8165 18.7264L8.72594 15.2197L1.76606 11.2124C0.967205 10.7512 0.768085 10.0606 1.1136 9.40967C0.723617 9.66113 0.43949 9.94368 0.254926 10.2376L0.0168457 10.2176C0.0443924 10.6788 0.321824 11.118 0.892435 11.4473Z" fill="#D9D9D9"/>
<path d="M24.9586 17.5054C24.9165 17.5287 24.8771 17.5637 24.8397 17.6034C24.8401 17.6136 24.8441 17.6207 24.8441 17.6314L24.7618 23.306C24.7591 23.4909 24.6681 23.6967 24.5442 23.8294C24.5536 24.0478 24.6906 24.1505 24.8641 24.0537C25.0459 23.9521 25.1974 23.6727 25.2006 23.4327L25.2824 17.7581C25.286 17.5176 25.1404 17.4039 24.9586 17.5054Z" fill="#C4C4C4"/>
<path d="M23.2186 18.5476C23.1765 18.5712 23.1371 18.6059 23.0997 18.6456C23.1001 18.6558 23.1041 18.6629 23.1041 18.6736L23.0222 24.3482C23.0195 24.5332 22.9286 24.739 22.8042 24.8716C22.8136 25.09 22.9506 25.1927 23.1241 25.0959C23.3059 24.9944 23.4574 24.715 23.4606 24.4745L23.5428 18.7999C23.5464 18.5598 23.4004 18.4465 23.2186 18.5476Z" fill="#C4C4C4"/>
<path d="M21.4442 19.5897C21.4021 19.6133 21.3627 19.6479 21.3253 19.6877C21.3257 19.6979 21.3297 19.705 21.3297 19.7156L21.2474 25.3902C21.2447 25.5752 21.1537 25.781 21.0298 25.9136C21.0392 26.132 21.1762 26.2347 21.3497 26.1379C21.5315 26.0364 21.683 25.757 21.6866 25.5165L21.7684 19.8419C21.772 19.6019 21.626 19.4881 21.4442 19.5897Z" fill="#C4C4C4"/>
<path d="M19.7049 20.6322C19.6628 20.6554 19.6234 20.6905 19.5861 20.7302C19.5865 20.7405 19.5904 20.7475 19.5904 20.7582L19.5085 26.4328C19.5058 26.6177 19.4149 26.8236 19.2905 26.9562C19.3 27.1746 19.4369 27.2773 19.6105 27.1805C19.7923 27.079 19.9438 26.7995 19.9469 26.5591L20.0288 20.8845C20.0323 20.6444 19.8863 20.5311 19.7049 20.6322Z" fill="#C4C4C4"/>
<path d="M17.1957 4.94305L11.832 1.9322C10.8206 1.37575 10.0434 1.22189 9.38661 1.44935C8.70936 1.68349 8.16747 2.32494 7.68186 3.46616L3.5105 12.9997C3.65059 13.0465 3.81548 13.1201 3.95125 13.189L8.09624 3.64443C8.52912 2.62717 8.9864 2.06521 9.53418 1.87554C10.0615 1.69333 10.7226 1.83657 11.6132 2.32612L16.9726 5.33461C18.3975 6.15747 18.5487 6.93468 17.7494 9.27852L13.593 18.7192C13.724 18.7955 13.8755 18.8959 14.0023 18.9797L18.1697 9.44183C18.9457 7.16765 18.9898 5.97881 17.1957 4.94305Z" fill="#EB2316"/>
<path d="M18.5048 4.86384C20.8939 6.39544 25.7024 10.3205 26.933 11.1331C26.9475 11.124 26.9633 11.1138 26.9778 11.1048C27.1018 11.0276 27.2293 10.9497 27.3584 10.8738C26.5131 10.3149 21.3229 6.13454 18.7724 4.49944C18.1825 4.12127 12.4776 0.765293 12.4776 0.765293C12.4776 0.765293 11.9176 0.420161 11.4293 0.166731C11.2722 0.0852715 10.9704 -0.137457 10.835 0.121876C10.7744 0.237966 10.8527 0.365463 11.0235 0.474076C11.1888 0.578754 11.3997 0.713741 11.6579 0.846753C11.6579 0.846753 18.3254 4.74894 18.5048 4.86384Z" fill="#EB2316"/>
<path d="M12.7505 0.431505C12.6651 0.390972 12.5573 0.399631 12.44 0.467317C12.1629 0.627088 11.9382 1.05642 11.9382 1.42555C11.9382 1.63097 12.0091 1.77146 12.1185 1.83128L12.8406 2.23778L17.583 4.98262L18.198 3.57498C18.2067 3.57734 12.7505 0.431505 12.7505 0.431505Z" fill="#EB2316"/>
<path d="M17.4043 4.5745C17.4043 4.94402 17.629 5.11364 17.906 4.95387C18.1831 4.7941 18.4074 4.36476 18.4074 3.99563C18.4074 3.62611 18.1827 3.4565 17.906 3.61627C17.6286 3.77604 17.4043 4.20498 17.4043 4.5745Z" fill="#EB2316"/>
<path d="M18.0443 4.07045C18.0171 4.05471 17.9829 4.05352 17.9439 4.07595C17.8589 4.12514 17.79 4.25658 17.79 4.36991C17.79 4.42816 17.8085 4.46947 17.838 4.48994L18.3508 4.77445L18.4334 4.29594L18.0443 4.07045Z" fill="#EB2316"/>
<path d="M11.8366 1.2849C11.7513 1.24437 11.6434 1.25302 11.5262 1.32071C11.2491 1.48048 11.0244 1.90982 11.0244 2.27894C11.0244 2.48436 11.0953 2.62485 11.2047 2.68467L11.9272 3.09118L16.6695 5.83601L17.2846 4.42838C17.2925 4.43113 11.8366 1.2849 11.8366 1.2849Z" fill="#EB2316"/>
<path d="M16.4897 5.4273C16.4897 5.79682 16.7145 5.96644 16.9915 5.80627C17.2685 5.6465 17.4932 5.21717 17.4932 4.84804C17.4932 4.47852 17.2685 4.30892 16.9915 4.46869C16.7145 4.62846 16.4897 5.05818 16.4897 5.4273Z" fill="#EB2316"/>
<path d="M17.1347 4.92352C17.1095 4.90856 17.0776 4.90778 17.0414 4.92863C16.9623 4.97428 16.8982 5.09706 16.8982 5.20252C16.8982 5.25683 16.9155 5.29539 16.9427 5.31428L17.3197 5.53505L17.4971 5.13366L17.1347 4.92352Z" fill="#EB2316"/>
<path d="M3.98224 13.0785C3.98224 13.2127 3.87324 13.3217 3.73905 13.3217C3.60485 13.3217 3.49585 13.2127 3.49585 13.0785C3.49585 12.9439 3.60485 12.8353 3.73905 12.8353C3.87363 12.8349 3.98224 12.9439 3.98224 13.0785Z" fill="#EB2316"/>
<path d="M14.0457 18.8399C14.0457 18.9741 13.9367 19.0831 13.8025 19.0831C13.6679 19.0831 13.5593 18.9741 13.5593 18.8399C13.5593 18.7053 13.6683 18.5967 13.8025 18.5967C13.9371 18.5963 14.0457 18.7053 14.0457 18.8399Z" fill="#EB2316"/>
</svg>
