<svg width="26" height="31" viewBox="0 0 26 31" fill="none" xmlns="http://www.w3.org/2000/svg">
<path d="M18.413 8.25391L0 9.63258L8.3487 11.9189L25.5171 9.90238L18.413 8.25391Z" fill="#737373"/>
<path d="M12.493 2.13104C11.0722 5.1454 10.9143 8.72495 11.013 10.1379C10.125 11.5509 15.1572 11.3154 16.6372 11.3154C18.1172 11.3154 17.2292 3.30851 16.6372 1.66005C16.2225 0.505457 14.2691 -1.6369 12.493 2.13104Z" fill="#EE7C03"/>
<mask id="mask0_287_3850" style="mask-type:alpha" maskUnits="userSpaceOnUse" x="10" y="0" width="8" height="12">
<path d="M12.493 2.13104C11.0722 5.1454 10.9143 8.72495 11.013 10.1379C10.125 11.5509 15.1572 11.3154 16.6372 11.3154C18.1172 11.3154 17.2292 3.30851 16.6372 1.66005C16.2225 0.505457 14.2691 -1.6369 12.493 2.13104Z" fill="#EE7C03"/>
</mask>
<g mask="url(#mask0_287_3850)">
<path d="M14.8611 4.25048C15.5715 4.06208 13.085 3.38699 11.901 3.073L11.605 4.25048C12.2957 4.32898 14.1506 4.43888 14.8611 4.25048Z" fill="#FADBA2"/>
<path d="M14.269 5.89892C14.9794 5.71052 12.493 5.03543 11.3089 4.72144L11.0129 5.89892C11.7036 5.97742 13.5586 6.08732 14.269 5.89892Z" fill="#FADBA2"/>
<path d="M14.269 7.78295C14.9794 7.59455 12.493 6.91946 11.3089 6.60547L11.0129 7.78295C11.7036 7.86145 13.5586 7.97135 14.269 7.78295Z" fill="#FADBA2"/>
</g>
<path d="M0.948583 9.04047L2.42862 11.0799L8.34877 12.2574L14.2689 11.5509L10.5 5L7 3.5L6.5 2.5L0.5 5.5L0.948583 6.60547V9.04047Z" fill="#D9D9D9"/>
<path d="M15.6947 8.25391C14.2146 8.96041 14.5106 10.2949 14.8066 11.0799C17.7667 12.9638 22.2068 11.0799 22.5028 10.6089C22.7988 10.1379 22.7988 8.48941 21.3188 8.01841C19.8388 7.54742 19.5427 8.01841 18.6547 8.01841C17.7667 8.01841 17.3 7.48762 15.6947 8.25391Z" fill="#EB2316"/>
<path d="M18.6548 8.4894C18.4575 8.0969 18.1812 7.26481 18.6548 7.07642" stroke="#575756" stroke-linecap="round"/>
<path d="M0.948486 9.04361V6.60547L5.09259 8.48944L8.05267 12.2574L2.42852 11.0799L0.948486 9.04361Z" fill="black" fill-opacity="0.25"/>
<path d="M10.5 5L4.50073 8.25394L7.46081 12.2574H8.34883L14.269 11.5509L10.5 5Z" fill="#C4C4C4"/>
<path d="M0 28L1.54053 10.6088L8.3487 11.7863L25.5171 9.90234V28L8.3487 30.8615L0 28Z" fill="url(#paint0_linear_287_3850)"/>
<path d="M0 28V9.63126L8.3487 11.7863V30.8616L0 28Z" fill="#049239"/>
<path d="M19.8659 12.1584C20.0331 12.4467 20.1712 12.9065 20.2377 13.4311C20.3046 13.96 20.3012 14.5742 20.17 15.1767C19.9091 16.3752 19.1202 17.5923 17.2909 17.9042C16.3766 18.06 15.6443 17.8892 15.0864 17.5054C14.543 17.1315 14.1899 16.5727 13.9637 15.982C13.5117 14.8018 13.5266 13.3861 13.6816 12.6874L14.2643 12.7693C14.1233 13.405 14.1084 14.7449 14.5297 15.845C14.7401 16.3944 15.0497 16.8572 15.4738 17.149C15.8835 17.4308 16.424 17.57 17.1672 17.4433C18.6528 17.1899 19.3444 16.2093 19.5867 15.0962C19.7071 14.5428 19.711 13.9725 19.6485 13.4785C19.5855 12.9804 19.457 12.5783 19.3282 12.3562L19.8659 12.1584Z" fill="white"/>
<path d="M13.085 26.6226V20.7352L21.3732 19.5V25.5L13.085 26.6226Z" fill="white" fill-opacity="0.3"/>
<defs>
<linearGradient id="paint0_linear_287_3850" x1="13.5288" y1="9.90234" x2="13.5288" y2="30.8615" gradientUnits="userSpaceOnUse">
<stop stop-color="#02923A"/>
<stop offset="1" stop-color="#8BBE20"/>
</linearGradient>
</defs>
</svg>
