<svg width="30" height="29" viewBox="0 0 30 29" fill="none" xmlns="http://www.w3.org/2000/svg">
<path d="M0 1.74141C0 1.74141 0.431818 0 9.5 1.27638e-08C18.5682 2.55277e-08 19 1.74141 19 1.74141L18.5682 6.96565H0.431818L0 1.74141Z" fill="url(#paint0_linear_287_3836)"/>
<ellipse cx="9.5" cy="3.48287" rx="8.5" ry="1.49264" fill="#A99178"/>
<path d="M0 1.99023C0 1.99023 0.431818 4.13483 9.93182 4.13483C18.5682 3.70591 19 1.99023 19 1.99023L17.6605 21.2831C17.4421 24.428 14.8273 26.8676 11.6749 26.8676H7.6609C4.54828 26.8676 1.95251 24.4873 1.68338 21.3864L0 1.99023Z" fill="url(#paint1_linear_287_3836)"/>
<path d="M19.7144 17.059C24.9215 17.059 29.1431 19.7322 29.1431 23.0297C29.1429 26.327 24.9215 29.0003 19.7144 29.0004C14.5072 29.0004 10.2858 26.327 10.2856 23.0297C10.2856 19.7322 14.5071 17.059 19.7144 17.059ZM19.7144 20.0443C17.1111 20.0443 15.001 21.0463 15.0005 22.2826C15.0005 23.5191 17.1107 24.5219 19.7144 24.5219C22.318 24.5218 24.4282 23.5191 24.4282 22.2826C24.4277 21.0463 22.3176 20.0443 19.7144 20.0443Z" fill="url(#paint2_radial_287_3836)"/>
<g filter="url(#filter0_i_287_3836)">
<path d="M19.7148 15.353C25.3952 15.3532 29.9998 18.408 30 22.1763C30 25.9447 25.3953 29.0003 19.7148 29.0005C14.0342 29.0005 9.42871 25.9448 9.42871 22.1763C9.42892 18.4079 14.0343 15.353 19.7148 15.353ZM19.7139 18.7642C16.874 18.7642 14.5718 19.9098 14.5713 21.3228C14.5713 22.7359 16.8737 23.8822 19.7139 23.8823C22.5542 23.8823 24.8574 22.7359 24.8574 21.3228C24.8569 19.9098 22.5539 18.7642 19.7139 18.7642Z" fill="url(#paint3_radial_287_3836)"/>
</g>
<path d="M19.7144 16.2057C24.4482 16.2057 28.2855 18.3063 28.2856 20.8971C28.2856 23.4879 24.4482 25.5885 19.7144 25.5885C14.9806 25.5885 11.1431 23.4879 11.1431 20.8971C11.1432 18.3064 14.9806 16.2057 19.7144 16.2057ZM19.7144 18.5514C17.3475 18.5514 15.4292 19.3396 15.4292 20.3112C15.4296 21.2826 17.3477 22.0699 19.7144 22.0699C22.081 22.0699 24.0001 21.2826 24.0005 20.3112C24.0005 19.3396 22.0813 18.5514 19.7144 18.5514Z" fill="#FFC52B"/>
<path d="M20.2679 16.4124L20.093 16.8808L20.2679 16.4124ZM22.1572 16.298L22.0035 16.7738L22.1572 16.298ZM22.3382 16.3565L22.492 15.8807L22.3382 16.3565ZM22.5193 16.415L22.3656 16.8908L22.5193 16.415ZM22.8736 16.5528L23.0816 16.0981L22.8736 16.5528ZM23.0468 16.632L22.8388 17.0867L23.0468 16.632ZM24.0099 16.6978L23.9356 16.2034L24.0099 16.6978ZM24.3699 16.7944L24.0516 17.18L24.3699 16.7944ZM25.0091 17.2423L25.1838 16.7738L25.0091 17.2423ZM25.3611 17.3735L25.1865 17.842L25.3611 17.3735ZM25.6994 17.5337L25.9511 17.1016L25.6994 17.5337ZM26.0239 17.7227L26.2755 17.2907L26.0239 17.7227ZM26.3851 17.8679L26.2618 18.3525L26.3851 17.8679ZM26.5841 17.9186L26.7075 17.434L26.5841 17.9186ZM26.7832 17.9693L26.9065 17.4847L26.7832 17.9693ZM27.0508 18.2264L26.5763 18.3841L27.0508 18.2264ZM27.188 18.6394L26.7135 18.797L27.188 18.6394ZM27.3736 18.9855L26.9904 19.3066L27.3736 18.9855ZM27.4906 19.1251L27.1074 19.4462L27.4906 19.1251ZM27.6076 19.2647L27.9908 18.9436L27.6076 19.2647ZM27.758 19.5829L28.2495 19.4908L27.758 19.5829ZM27.825 19.9402L27.3335 20.0322L27.825 19.9402ZM27.9546 20.2786L27.5262 20.5364L27.9546 20.2786ZM28.147 20.5982L27.7186 20.8561L28.147 20.5982ZM28.2324 20.9428L28.7316 20.9719L28.2324 20.9428ZM28.2109 21.3124L27.7118 21.2834L28.2109 21.3124ZM28.1611 21.6852L28.6506 21.787L28.1611 21.6852ZM28.0829 22.0612L27.5934 21.9594L28.0829 22.0612ZM27.9174 22.3933L28.2932 22.7231L27.9174 22.3933ZM27.791 22.5374L28.1668 22.8671L27.791 22.5374ZM27.6646 22.6814L27.2887 22.3516L27.6646 22.6814ZM27.4357 22.9921L27.0098 22.7302L27.4357 22.9921ZM27.3333 23.1587L27.7592 23.4205L27.3333 23.1587ZM27.2309 23.3253L27.6568 23.5871L27.2309 23.3253ZM26.9478 23.5686L27.1433 24.0288L26.9478 23.5686ZM26.7671 23.6454L26.5716 23.1852L26.7671 23.6454ZM26.5864 23.7221L26.7819 24.1823L26.5864 23.7221ZM26.2534 23.9096L25.9593 23.5053L26.2534 23.9096ZM25.9488 24.1312L26.2429 24.5356L25.9488 24.1312ZM25.6147 24.2955L25.7558 24.7751L25.6147 24.2955ZM25.4328 24.349L25.574 24.8286L25.4328 24.349ZM25.251 24.4025L25.1099 23.9228L25.251 24.4025ZM24.904 24.545L24.6669 24.1047L24.904 24.545ZM24.7388 24.6339L24.9759 25.0742L24.7388 24.6339ZM24.5736 24.7229L24.8106 25.1631L24.5736 24.7229ZM24.2162 24.8212L24.1921 24.3218L24.2162 24.8212ZM23.8319 24.8398L23.8078 24.3403L23.8319 24.8398ZM23.4865 25.0077L23.1268 24.6604L23.4865 25.0077ZM23.18 25.3251L23.5397 25.6724L23.18 25.3251ZM22.8267 25.4452L22.7322 25.9362L22.8267 25.4452ZM22.4265 25.3682L22.521 24.8772L22.4265 25.3682ZM22.046 25.395L22.2161 25.8652L22.046 25.395ZM21.8656 25.4603L22.0357 25.9305L21.8656 25.4603ZM21.6852 25.5256L21.515 25.0554L21.6852 25.5256ZM21.3168 25.607L21.3596 26.1052L21.3168 25.607ZM20.9408 25.6394L20.898 25.1412L20.9408 25.6394ZM20.5635 25.6194L20.6573 25.1283L20.5635 25.6194ZM20.3742 25.5832L20.2804 26.0743L20.3742 25.5832ZM20.1849 25.5471L20.091 26.0382L20.1849 25.5471ZM19.8091 25.4973L19.8453 24.9987L19.8091 25.4973ZM19.6227 25.4838L19.6589 24.9851L19.6227 25.4838ZM19.4363 25.4702L19.4 25.9689L19.4363 25.4702ZM19.066 25.4216L18.9723 25.9127L19.066 25.4216ZM18.8822 25.3865L18.9759 24.8954L18.8822 25.3865ZM18.6983 25.3514L18.792 24.8603L18.6983 25.3514ZM18.3303 25.3004L18.3736 24.8022L18.3303 25.3004ZM17.962 25.2684L17.9188 25.7665L17.962 25.2684ZM17.5765 25.3281L17.7524 25.7962L17.5765 25.3281ZM17.1736 25.4796L17.3496 25.9476L17.1736 25.4796ZM16.8093 25.4185L16.4876 25.8013L16.8093 25.4185ZM16.6465 25.2817L16.9681 24.8989L16.6465 25.2817ZM16.4836 25.1449L16.162 25.5277L16.4836 25.1449ZM16.143 24.9586L16.2768 24.4769L16.143 24.9586ZM15.7874 24.8598L15.6535 25.3416L15.7874 24.8598ZM15.4113 24.8142L15.4208 25.3141L15.4113 24.8142ZM15.0147 24.8217L15.0052 24.3218L15.0147 24.8217ZM14.6752 24.6818L15.0318 24.3313L14.6752 24.6818ZM14.534 24.5381L14.1773 24.8885L14.534 24.5381ZM14.3928 24.3944L14.0361 24.7448L14.3928 24.3944ZM14.0356 24.2604L14.0133 23.7609L14.0356 24.2604ZM13.6036 24.2796L13.5813 23.7801L13.6036 24.2796ZM13.0578 23.7635L13.4814 23.4978L13.0578 23.7635ZM12.774 23.5067L12.5617 23.9595L12.774 23.5067ZM12.6001 23.4252L12.8124 22.9725L12.6001 23.4252ZM12.4263 23.3437L12.214 23.7964L12.4263 23.3437ZM11.9015 23.0548L11.6471 23.4853L11.9015 23.0548ZM11.4902 22.6538L11.9675 22.5048L11.4902 22.6538ZM11.3693 22.2666L11.8465 22.1175L11.3693 22.2666ZM11.2119 21.8946L10.7726 22.1333L11.2119 21.8946ZM11.1151 21.7164L11.5544 21.4777L11.1151 21.7164ZM10.9465 21.1581L10.4504 21.0962L10.9465 21.1581ZM11.0817 20.3667L11.5578 20.5193L11.0817 20.3667ZM11.1413 20.1806L10.6652 20.028L11.1413 20.1806ZM11.201 19.9945L10.7248 19.8419L11.201 19.9945ZM11.348 19.6351L10.9015 19.41L11.348 19.6351ZM11.5226 19.2885L11.0761 19.0635L11.5226 19.2885ZM11.7434 18.9761L12.1042 19.3223L11.7434 18.9761ZM11.8769 18.837L11.5162 18.4908L11.8769 18.837ZM12.2645 18.4027L11.869 18.0969L12.2645 18.4027ZM12.3851 18.2467L12.7807 18.5526L12.3851 18.2467ZM12.5057 18.0907L12.1102 17.7849L12.5057 18.0907ZM12.8118 17.8667L12.6397 17.3973L12.8118 17.8667ZM13.5674 17.6417L13.5151 17.1445L13.5674 17.6417ZM13.9659 17.5998L13.9136 17.1025L13.9659 17.5998ZM14.2915 17.3991L14.7006 17.6866L14.2915 17.3991ZM14.4178 17.2194L14.8269 17.5069L14.4178 17.2194ZM14.5441 17.0397L14.135 16.7522L14.5441 17.0397ZM15.1041 16.9651L14.9863 17.4511L15.1041 16.9651ZM15.7087 16.9969L15.5113 16.5375L15.7087 16.9969ZM16.0503 16.8501L15.853 16.3907L16.0503 16.8501ZM16.5935 16.7521L16.5605 16.2532L16.5935 16.7521ZM17.4802 16.4141L17.2201 15.9871L17.4802 16.4141ZM17.8429 16.3404L17.7635 16.834L17.8429 16.3404ZM18.5992 16.3576L18.4091 15.8951L18.5992 16.3576ZM18.9645 16.2074L19.1546 16.6699L18.9645 16.2074ZM19.7144 16.2693L19.2144 16.2693L19.7144 16.2693ZM19.7144 16.2269L20.2144 16.2269L19.7144 16.2269ZM19.8989 16.2746L20.0738 15.8062L19.8989 16.2746ZM19.1517 18.5677L19.1662 19.0675L19.1517 18.5677ZM18.7711 18.5498L18.7112 19.0462L18.7711 18.5498ZM18.0192 18.5788L17.7707 18.1449L18.0192 18.5788ZM17.674 18.7765L17.9225 19.2104L17.674 18.7765ZM16.6269 19.1633L16.9143 19.5725L16.6269 19.1633ZM16.4755 19.2696L16.7629 19.6788L16.4755 19.2696ZM16.3242 19.3759L16.0368 18.9668L16.3242 19.3759ZM15.4233 19.9693L14.9342 20.0732L15.4233 19.9693ZM15.5085 20.3701L15.9976 20.2661L15.5085 20.3701ZM15.6569 20.7147L16.06 20.4189L15.6569 20.7147ZM15.8686 21.0032L15.4655 21.299L15.8686 21.0032ZM16.1312 21.2512L16.4073 20.8343L16.1312 21.2512ZM16.288 21.355L16.564 20.9381L16.288 21.355ZM16.4447 21.4588L16.1687 21.8757L16.4447 21.4588ZM16.792 21.5808L16.8395 21.083L16.792 21.5808ZM17.5289 21.7573L17.8256 21.3548L17.5289 21.7573ZM17.6943 21.8792L17.991 21.4768L17.6943 21.8792ZM17.8597 22.0012L17.563 22.4036L17.8597 22.0012ZM18.2204 22.0855L18.1256 21.5945L18.2204 22.0855ZM18.611 22.01L18.7058 22.501L18.611 22.01ZM18.9929 21.9541L18.9443 21.4565L18.9929 21.9541ZM19.1795 21.9358L19.1308 21.4382L19.1795 21.9358ZM19.3661 21.9176L19.4148 22.4152L19.3661 21.9176ZM19.742 21.9799L19.5461 22.44L19.742 21.9799ZM20.1205 22.1411L20.3164 21.681L20.1205 22.1411ZM20.6902 22.1908L20.6498 21.6925L20.6902 22.1908ZM20.8804 22.1754L20.9208 22.6738L20.8804 22.1754ZM21.2465 22.0707L21.473 22.5164L21.2465 22.0707ZM21.9539 21.7548L21.8256 21.2715L21.9539 21.7548ZM22.1339 21.707L22.2622 22.1903L22.1339 21.707ZM22.314 21.6592L22.4423 22.1425L22.314 21.6592ZM22.6913 21.5846L22.6238 21.0891L22.6913 21.5846ZM22.8885 21.5577L22.8211 21.0623L22.8885 21.5577ZM23.0858 21.5309L23.1532 22.0263L23.0858 21.5309ZM23.3577 21.3073L22.8903 21.1298L23.3577 21.3073ZM23.4324 21.1106L23.8998 21.2881L23.4324 21.1106ZM23.5071 20.9139L23.0397 20.7364L23.5071 20.9139ZM23.6205 20.5948L23.1437 20.4442L23.6205 20.5948ZM23.6978 20.35L24.1746 20.5006L23.6978 20.35ZM23.7428 20.0134L24.2426 20.0283L23.7428 20.0134ZM23.7556 19.585L24.2554 19.5999L23.7556 19.585ZM23.5877 19.2653L23.3289 19.6931L23.5877 19.2653ZM23.2391 19.0544L23.4979 18.6266L23.2391 19.0544ZM22.8847 18.8681L23.0897 18.412L22.8847 18.8681ZM22.7047 18.7871L22.9096 18.3311L22.7047 18.7871ZM22.5246 18.7062L22.3196 19.1623L22.5246 18.7062ZM22.139 18.6636L22.2306 19.1552L22.139 18.6636ZM21.7279 18.7403L21.6362 18.2488L21.7279 18.7403ZM21.1611 18.6573L21.0019 19.1312L21.1611 18.6573ZM20.9805 18.5966L21.1397 18.1226L20.9805 18.5966ZM20.6115 18.5253L20.6396 18.0261L20.6115 18.5253ZM20.4231 18.5147L20.395 19.0139L20.4231 18.5147ZM20.2347 18.5041L20.2628 18.0049L20.2347 18.5041ZM19.9634 18.508L20.0493 19.0005L19.9634 18.508ZM19.8804 18.5224L19.7945 18.0299L19.8804 18.5224ZM19.7974 18.5369L19.7115 18.0443L19.7974 18.5369ZM19.5268 18.5568L19.5124 18.057L19.5268 18.5568ZM20.0834 16.3435L19.9085 16.8119L20.093 16.8808L20.2679 16.4124L20.4428 15.944L20.2583 15.8751L20.0834 16.3435ZM20.2679 16.4124L20.093 16.8808C20.3039 16.9596 20.5257 16.977 20.747 16.9293L20.6416 16.4405L20.5361 15.9518C20.5053 15.9584 20.478 15.9571 20.4428 15.944L20.2679 16.4124ZM20.6416 16.4405L20.747 16.9293L20.9361 16.8885L20.8307 16.3997L20.7252 15.911L20.5361 15.9518L20.6416 16.4405ZM20.8307 16.3997L20.9361 16.8885L21.1252 16.8477L21.0198 16.3589L20.9144 15.8702L20.7252 15.911L20.8307 16.3997ZM21.0198 16.3589L21.1252 16.8477C21.2334 16.8243 21.3422 16.8071 21.4517 16.7959L21.4007 16.2985L21.3498 15.8011C21.2035 15.8161 21.0584 15.8391 20.9144 15.8702L21.0198 16.3589ZM21.4007 16.2985L21.4517 16.7959L21.6435 16.7762L21.5925 16.2788L21.5416 15.7814L21.3498 15.8011L21.4007 16.2985ZM21.5925 16.2788L21.6435 16.7762L21.8353 16.7566L21.7843 16.2592L21.7334 15.7618L21.5416 15.7814L21.5925 16.2788ZM21.7843 16.2592L21.8353 16.7566C21.8951 16.7505 21.9497 16.7564 22.0035 16.7738L22.1572 16.298L22.3109 15.8222C22.1233 15.7616 21.9293 15.7417 21.7334 15.7618L21.7843 16.2592ZM22.1572 16.298L22.0035 16.7738L22.1845 16.8323L22.3382 16.3565L22.492 15.8807L22.3109 15.8222L22.1572 16.298ZM22.3382 16.3565L22.1845 16.8323L22.3656 16.8908L22.5193 16.415L22.673 15.9392L22.492 15.8807L22.3382 16.3565ZM22.5193 16.415L22.3656 16.8908C22.4678 16.9238 22.5677 16.9627 22.6655 17.0074L22.8736 16.5528L23.0816 16.0981C22.9485 16.0372 22.8122 15.9842 22.673 15.9392L22.5193 16.415ZM22.8736 16.5528L22.6655 17.0074L22.8388 17.0867L23.0468 16.632L23.2548 16.1773L23.0816 16.0981L22.8736 16.5528ZM23.0468 16.632L22.8388 17.0867L23.012 17.1659L23.22 16.7113L23.428 16.2566L23.2548 16.1773L23.0468 16.632ZM23.22 16.7113L23.012 17.1659C23.2237 17.2628 23.4492 17.2877 23.6731 17.2541L23.5988 16.7596L23.5245 16.2652C23.4743 16.2727 23.4472 16.2654 23.428 16.2566L23.22 16.7113ZM23.5988 16.7596L23.6731 17.2541L23.8787 17.2232L23.8043 16.7287L23.73 16.2343L23.5245 16.2652L23.5988 16.7596ZM23.8043 16.7287L23.8787 17.2232L24.0842 17.1923L24.0099 16.6978L23.9356 16.2034L23.73 16.2343L23.8043 16.7287ZM24.0099 16.6978L24.0842 17.1923C24.0889 17.1916 24.0896 17.1919 24.087 17.1918C24.0842 17.1916 24.0794 17.1911 24.0732 17.1894C24.0669 17.1878 24.0614 17.1855 24.0569 17.1832C24.0526 17.1809 24.0508 17.1793 24.0516 17.18L24.3699 16.7944L24.6881 16.4087C24.471 16.2296 24.2069 16.1626 23.9356 16.2034L24.0099 16.6978ZM24.3699 16.7944L24.0516 17.18L24.2061 17.3074L24.5243 16.9218L24.8426 16.5362L24.6881 16.4087L24.3699 16.7944ZM24.5243 16.9218L24.2061 17.3074L24.3605 17.4349L24.6787 17.0492L24.997 16.6636L24.8426 16.5362L24.5243 16.9218ZM24.6787 17.0492L24.3605 17.4349C24.5035 17.5529 24.6617 17.6464 24.8345 17.7108L25.0091 17.2423L25.1838 16.7738C25.122 16.7507 25.0599 16.7155 24.997 16.6636L24.6787 17.0492ZM25.0091 17.2423L24.8345 17.7108L25.0105 17.7764L25.1851 17.3079L25.3598 16.8394L25.1838 16.7738L25.0091 17.2423ZM25.1851 17.3079L25.0105 17.7764L25.1865 17.842L25.3611 17.3735L25.5358 16.905L25.3598 16.8394L25.1851 17.3079ZM25.3611 17.3735L25.1865 17.842C25.2771 17.8758 25.3641 17.917 25.4477 17.9657L25.6994 17.5337L25.9511 17.1016C25.8183 17.0243 25.6798 16.9587 25.5358 16.905L25.3611 17.3735ZM25.6994 17.5337L25.4477 17.9657L25.6099 18.0602L25.8616 17.6282L26.1133 17.1962L25.9511 17.1016L25.6994 17.5337ZM25.8616 17.6282L25.6099 18.0602L25.7722 18.1547L26.0239 17.7227L26.2755 17.2907L26.1133 17.1962L25.8616 17.6282ZM26.0239 17.7227L25.7722 18.1547C25.924 18.2432 26.0883 18.3083 26.2618 18.3525L26.3851 17.8679L26.5085 17.3834C26.4166 17.36 26.34 17.3282 26.2755 17.2907L26.0239 17.7227ZM26.3851 17.8679L26.2618 18.3525L26.4608 18.4031L26.5841 17.9186L26.7075 17.434L26.5085 17.3834L26.3851 17.8679ZM26.5841 17.9186L26.4608 18.4031L26.6598 18.4538L26.7832 17.9693L26.9065 17.4847L26.7075 17.434L26.5841 17.9186ZM26.7832 17.9693L26.6598 18.4538C26.6515 18.4517 26.6274 18.4427 26.6032 18.4194C26.5799 18.3971 26.5746 18.379 26.5763 18.3841L27.0508 18.2264L27.5253 18.0687C27.4297 17.781 27.2158 17.5634 26.9065 17.4847L26.7832 17.9693ZM27.0508 18.2264L26.5763 18.3841L26.6449 18.5906L27.1194 18.4329L27.5939 18.2752L27.5253 18.0687L27.0508 18.2264ZM27.1194 18.4329L26.6449 18.5906L26.7135 18.797L27.188 18.6394L27.6625 18.4817L27.5939 18.2752L27.1194 18.4329ZM27.188 18.6394L26.7135 18.797C26.7754 18.9831 26.8649 19.1569 26.9904 19.3066L27.3736 18.9855L27.7569 18.6643C27.7264 18.6279 27.6922 18.571 27.6625 18.4817L27.188 18.6394ZM27.3736 18.9855L26.9904 19.3066L27.1074 19.4462L27.4906 19.1251L27.8738 18.8039L27.7569 18.6643L27.3736 18.9855ZM27.4906 19.1251L27.1074 19.4462L27.2243 19.5858L27.6076 19.2647L27.9908 18.9436L27.8738 18.8039L27.4906 19.1251ZM27.6076 19.2647L27.2243 19.5858C27.2473 19.6132 27.2601 19.6405 27.2666 19.675L27.758 19.5829L28.2495 19.4908C28.2113 19.2872 28.1238 19.1023 27.9908 18.9436L27.6076 19.2647ZM27.758 19.5829L27.2666 19.675L27.3001 19.8536L27.7915 19.7615L28.283 19.6694L28.2495 19.4908L27.758 19.5829ZM27.7915 19.7615L27.3001 19.8536L27.3335 20.0322L27.825 19.9402L28.3164 19.8481L28.283 19.6694L27.7915 19.7615ZM27.825 19.9402L27.3335 20.0322C27.3671 20.2114 27.4322 20.3802 27.5262 20.5364L27.9546 20.2786L28.383 20.0208C28.3488 19.9639 28.3275 19.907 28.3164 19.8481L27.825 19.9402ZM27.9546 20.2786L27.5262 20.5364L27.6224 20.6962L28.0508 20.4384L28.4792 20.1806L28.383 20.0208L27.9546 20.2786ZM28.0508 20.4384L27.6224 20.6962L27.7186 20.8561L28.147 20.5982L28.5754 20.3404L28.4792 20.1806L28.0508 20.4384ZM28.147 20.5982L27.7186 20.8561C27.7312 20.877 27.7346 20.892 27.7333 20.9138L28.2324 20.9428L28.7316 20.9719C28.7447 20.7473 28.6911 20.5325 28.5754 20.3404L28.147 20.5982ZM28.2324 20.9428L27.7333 20.9138L27.7225 21.0986L28.2217 21.1276L28.7208 21.1567L28.7316 20.9719L28.2324 20.9428ZM28.2217 21.1276L27.7225 21.0986L27.7118 21.2834L28.2109 21.3124L28.7101 21.3415L28.7208 21.1567L28.2217 21.1276ZM28.2109 21.3124L27.7118 21.2834C27.7061 21.3812 27.6928 21.4812 27.6715 21.5835L28.1611 21.6852L28.6506 21.787C28.6814 21.6386 28.7014 21.49 28.7101 21.3415L28.2109 21.3124ZM28.1611 21.6852L27.6715 21.5835L27.6324 21.7715L28.122 21.8732L28.6115 21.975L28.6506 21.787L28.1611 21.6852ZM28.122 21.8732L27.6324 21.7715L27.5934 21.9594L28.0829 22.0612L28.5724 22.163L28.6115 21.975L28.122 21.8732ZM28.0829 22.0612L27.5934 21.9594C27.5848 22.0004 27.5688 22.0325 27.5416 22.0635L27.9174 22.3933L28.2932 22.7231C28.4346 22.562 28.5288 22.3727 28.5724 22.163L28.0829 22.0612ZM27.9174 22.3933L27.5416 22.0635L27.4151 22.2076L27.791 22.5374L28.1668 22.8671L28.2932 22.7231L27.9174 22.3933ZM27.791 22.5374L27.4151 22.2076L27.2887 22.3516L27.6646 22.6814L28.0404 23.0112L28.1668 22.8671L27.791 22.5374ZM27.6646 22.6814L27.2887 22.3516C27.1855 22.4693 27.0925 22.5956 27.0098 22.7302L27.4357 22.9921L27.8617 23.2539C27.9155 23.1664 27.9751 23.0856 28.0404 23.0112L27.6646 22.6814ZM27.4357 22.9921L27.0098 22.7302L26.9074 22.8968L27.3333 23.1587L27.7592 23.4205L27.8617 23.2539L27.4357 22.9921ZM27.3333 23.1587L26.9074 22.8968L26.8049 23.0634L27.2309 23.3253L27.6568 23.5871L27.7592 23.4205L27.3333 23.1587ZM27.2309 23.3253L26.8049 23.0634C26.7913 23.0857 26.7776 23.0977 26.7523 23.1084L26.9478 23.5686L27.1433 24.0288C27.3589 23.9372 27.534 23.787 27.6568 23.5871L27.2309 23.3253ZM26.9478 23.5686L26.7523 23.1084L26.5716 23.1852L26.7671 23.6454L26.9626 24.1056L27.1433 24.0288L26.9478 23.5686ZM26.7671 23.6454L26.5716 23.1852L26.3909 23.2619L26.5864 23.7221L26.7819 24.1823L26.9626 24.1056L26.7671 23.6454ZM26.5864 23.7221L26.3909 23.2619C26.2371 23.3273 26.0928 23.4082 25.9593 23.5053L26.2534 23.9096L26.5475 24.314C26.6171 24.2634 26.6949 24.2193 26.7819 24.1823L26.5864 23.7221ZM26.2534 23.9096L25.9593 23.5053L25.807 23.616L26.1011 24.0204L26.3952 24.4248L26.5475 24.314L26.2534 23.9096ZM26.1011 24.0204L25.807 23.616L25.6547 23.7268L25.9488 24.1312L26.2429 24.5356L26.3952 24.4248L26.1011 24.0204ZM25.9488 24.1312L25.6547 23.7268C25.5997 23.7668 25.5401 23.7962 25.4735 23.8158L25.6147 24.2955L25.7558 24.7751C25.9316 24.7234 26.0947 24.6433 26.2429 24.5356L25.9488 24.1312ZM25.6147 24.2955L25.4735 23.8158L25.2917 23.8693L25.4328 24.349L25.574 24.8286L25.7558 24.7751L25.6147 24.2955ZM25.4328 24.349L25.2917 23.8693L25.1099 23.9228L25.251 24.4025L25.3922 24.8822L25.574 24.8286L25.4328 24.349ZM25.251 24.4025L25.1099 23.9228C24.9558 23.9682 24.8079 24.0288 24.6669 24.1047L24.904 24.545L25.1411 24.9852C25.2204 24.9425 25.3039 24.9081 25.3922 24.8822L25.251 24.4025ZM24.904 24.545L24.6669 24.1047L24.5017 24.1937L24.7388 24.6339L24.9759 25.0742L25.1411 24.9852L24.904 24.545ZM24.7388 24.6339L24.5017 24.1937L24.3365 24.2827L24.5736 24.7229L24.8106 25.1631L24.9759 25.0742L24.7388 24.6339ZM24.5736 24.7229L24.3365 24.2827C24.2937 24.3057 24.2476 24.3191 24.1921 24.3218L24.2162 24.8212L24.2403 25.3206C24.441 25.3109 24.6331 25.2587 24.8106 25.1631L24.5736 24.7229ZM24.2162 24.8212L24.1921 24.3218L23.9999 24.331L24.0241 24.8305L24.0482 25.3299L24.2403 25.3206L24.2162 24.8212ZM24.0241 24.8305L23.9999 24.331L23.8078 24.3403L23.8319 24.8398L23.856 25.3392L24.0482 25.3299L24.0241 24.8305ZM23.8319 24.8398L23.8078 24.3403C23.5338 24.3536 23.3035 24.4775 23.1268 24.6604L23.4865 25.0077L23.8462 25.355C23.8626 25.3381 23.8704 25.3349 23.8681 25.336C23.8672 25.3365 23.865 25.3374 23.8621 25.3382C23.8591 25.3389 23.8569 25.3391 23.856 25.3392L23.8319 24.8398ZM23.4865 25.0077L23.1268 24.6604L22.9736 24.8191L23.3333 25.1664L23.6929 25.5137L23.8462 25.355L23.4865 25.0077ZM23.3333 25.1664L22.9736 24.8191L22.8204 24.9777L23.18 25.3251L23.5397 25.6724L23.6929 25.5137L23.3333 25.1664ZM23.18 25.3251L22.8204 24.9777C22.8145 24.9838 22.8251 24.9709 22.8541 24.9611C22.8848 24.9506 22.9107 24.9522 22.9212 24.9543L22.8267 25.4452L22.7322 25.9362C23.0472 25.9969 23.3317 25.8878 23.5397 25.6724L23.18 25.3251ZM22.8267 25.4452L22.9212 24.9543L22.7211 24.9157L22.6266 25.4067L22.5321 25.8977L22.7322 25.9362L22.8267 25.4452ZM22.6266 25.4067L22.7211 24.9157L22.521 24.8772L22.4265 25.3682L22.332 25.8592L22.5321 25.8977L22.6266 25.4067ZM22.4265 25.3682L22.521 24.8772C22.3048 24.8356 22.0861 24.8487 21.8758 24.9249L22.046 25.395L22.2161 25.8652C22.2463 25.8542 22.2813 25.8495 22.332 25.8592L22.4265 25.3682ZM22.046 25.395L21.8758 24.9249L21.6954 24.9901L21.8656 25.4603L22.0357 25.9305L22.2161 25.8652L22.046 25.395ZM21.8656 25.4603L21.6954 24.9901L21.515 25.0554L21.6852 25.5256L21.8553 25.9957L22.0357 25.9305L21.8656 25.4603ZM21.6852 25.5256L21.515 25.0554C21.4351 25.0844 21.355 25.1019 21.2739 25.1089L21.3168 25.607L21.3596 26.1052C21.5291 26.0906 21.6947 26.0539 21.8553 25.9957L21.6852 25.5256ZM21.3168 25.607L21.2739 25.1089L21.0859 25.1251L21.1288 25.6232L21.1716 26.1214L21.3596 26.1052L21.3168 25.607ZM21.1288 25.6232L21.0859 25.1251L20.898 25.1412L20.9408 25.6394L20.9837 26.1375L21.1716 26.1214L21.1288 25.6232ZM20.9408 25.6394L20.898 25.1412C20.8193 25.148 20.7395 25.144 20.6573 25.1283L20.5635 25.6194L20.4697 26.1105C20.6399 26.143 20.8117 26.1523 20.9837 26.1375L20.9408 25.6394ZM20.5635 25.6194L20.6573 25.1283L20.468 25.0921L20.3742 25.5832L20.2804 26.0743L20.4697 26.1105L20.5635 25.6194ZM20.3742 25.5832L20.468 25.0921L20.2787 25.0559L20.1849 25.5471L20.091 26.0382L20.2804 26.0743L20.3742 25.5832ZM20.1849 25.5471L20.2787 25.0559C20.134 25.0283 19.9895 25.0091 19.8453 24.9987L19.8091 25.4973L19.7729 25.996C19.8772 26.0036 19.9833 26.0176 20.091 26.0382L20.1849 25.5471ZM19.8091 25.4973L19.8453 24.9987L19.6589 24.9851L19.6227 25.4838L19.5864 25.9825L19.7729 25.996L19.8091 25.4973ZM19.6227 25.4838L19.6589 24.9851L19.4725 24.9716L19.4363 25.4702L19.4 25.9689L19.5864 25.9825L19.6227 25.4838ZM19.4363 25.4702L19.4725 24.9716C19.3675 24.9639 19.2633 24.9502 19.1597 24.9305L19.066 25.4216L18.9723 25.9127C19.1138 25.9398 19.2564 25.9585 19.4 25.9689L19.4363 25.4702ZM19.066 25.4216L19.1597 24.9305L18.9759 24.8954L18.8822 25.3865L18.7884 25.8777L18.9723 25.9127L19.066 25.4216ZM18.8822 25.3865L18.9759 24.8954L18.792 24.8603L18.6983 25.3514L18.6046 25.8426L18.7884 25.8777L18.8822 25.3865ZM18.6983 25.3514L18.792 24.8603C18.653 24.8338 18.5135 24.8144 18.3736 24.8022L18.3303 25.3004L18.2871 25.7985C18.3927 25.8077 18.4985 25.8223 18.6046 25.8426L18.6983 25.3514ZM18.3303 25.3004L18.3736 24.8022L18.1894 24.7863L18.1462 25.2844L18.1029 25.7825L18.2871 25.7985L18.3303 25.3004ZM18.1462 25.2844L18.1894 24.7863L18.0053 24.7703L17.962 25.2684L17.9188 25.7665L18.1029 25.7825L18.1462 25.2844ZM17.962 25.2684L18.0053 24.7703C17.7968 24.7522 17.5932 24.7877 17.4005 24.8601L17.5765 25.3281L17.7524 25.7962C17.8283 25.7676 17.8817 25.7633 17.9188 25.7665L17.962 25.2684ZM17.5765 25.3281L17.4005 24.8601L17.199 24.9359L17.375 25.4039L17.551 25.8719L17.7524 25.7962L17.5765 25.3281ZM17.375 25.4039L17.199 24.9359L16.9976 25.0116L17.1736 25.4796L17.3496 25.9476L17.551 25.8719L17.375 25.4039ZM17.1736 25.4796L16.9976 25.0116C16.9992 25.011 17.0248 25.0025 17.0645 25.0091C17.1045 25.0158 17.1274 25.0328 17.131 25.0357L16.8093 25.4185L16.4876 25.8013C16.5998 25.8955 16.7377 25.9683 16.8991 25.9953C17.0602 26.0224 17.2137 25.9987 17.3496 25.9476L17.1736 25.4796ZM16.8093 25.4185L17.131 25.0357L16.9681 24.8989L16.6465 25.2817L16.3248 25.6645L16.4876 25.8013L16.8093 25.4185ZM16.6465 25.2817L16.9681 24.8989L16.8053 24.7621L16.4836 25.1449L16.162 25.5277L16.3248 25.6645L16.6465 25.2817ZM16.4836 25.1449L16.8053 24.7621C16.6503 24.6318 16.4741 24.5317 16.2768 24.4769L16.143 24.9586L16.0091 25.4404C16.0489 25.4514 16.0999 25.4755 16.162 25.5277L16.4836 25.1449ZM16.143 24.9586L16.2768 24.4769L16.099 24.4275L15.9652 24.9092L15.8313 25.391L16.0091 25.4404L16.143 24.9586ZM15.9652 24.9092L16.099 24.4275L15.9212 24.3781L15.7874 24.8598L15.6535 25.3416L15.8313 25.391L15.9652 24.9092ZM15.7874 24.8598L15.9212 24.3781C15.7527 24.3313 15.5788 24.3109 15.4018 24.3143L15.4113 24.8142L15.4208 25.3141C15.5082 25.3124 15.585 25.3225 15.6535 25.3416L15.7874 24.8598ZM15.4113 24.8142L15.4018 24.3143L15.2035 24.318L15.213 24.8179L15.2224 25.3179L15.4208 25.3141L15.4113 24.8142ZM15.213 24.8179L15.2035 24.318L15.0052 24.3218L15.0147 24.8217L15.0241 25.3216L15.2224 25.3179L15.213 24.8179ZM15.0147 24.8217L15.0052 24.3218C15.003 24.3218 15.004 24.3216 15.0076 24.3223C15.0112 24.3229 15.016 24.3242 15.0212 24.3263C15.0263 24.3285 15.0302 24.3307 15.0325 24.3323C15.0347 24.3338 15.0344 24.334 15.0318 24.3313L14.6752 24.6818L14.3185 25.0322C14.5073 25.2243 14.7521 25.3268 15.0241 25.3216L15.0147 24.8217ZM14.6752 24.6818L15.0318 24.3313L14.8906 24.1877L14.534 24.5381L14.1773 24.8885L14.3185 25.0322L14.6752 24.6818ZM14.534 24.5381L14.8906 24.1877L14.7494 24.044L14.3928 24.3944L14.0361 24.7448L14.1773 24.8885L14.534 24.5381ZM14.3928 24.3944L14.7494 24.044C14.5479 23.8389 14.2874 23.7486 14.0133 23.7609L14.0356 24.2604L14.0579 24.7599C14.065 24.7595 14.0678 24.76 14.067 24.7599C14.066 24.7598 14.0624 24.7591 14.0572 24.7572C14.0519 24.7552 14.0468 24.7525 14.0424 24.7496C14.0381 24.7468 14.0361 24.7448 14.0361 24.7448L14.3928 24.3944ZM14.0356 24.2604L14.0133 23.7609L13.7973 23.7705L13.8196 24.27L13.8419 24.7695L14.0579 24.7599L14.0356 24.2604ZM13.8196 24.27L13.7973 23.7705L13.5813 23.7801L13.6036 24.2796L13.626 24.7792L13.8419 24.7695L13.8196 24.27ZM13.6036 24.2796L13.5813 23.7801C13.5797 23.7802 13.6051 23.7792 13.6407 23.7973C13.6774 23.816 13.6962 23.8403 13.7013 23.8483L13.2777 24.114L12.8542 24.3797C13.0283 24.6574 13.3121 24.7932 13.626 24.7792L13.6036 24.2796ZM13.2777 24.114L13.7013 23.8483L13.5913 23.6731L13.1678 23.9388L12.7442 24.2045L12.8542 24.3797L13.2777 24.114ZM13.1678 23.9388L13.5913 23.6731L13.4814 23.4978L13.0578 23.7635L12.6343 24.0292L12.7442 24.2045L13.1678 23.9388ZM13.0578 23.7635L13.4814 23.4978C13.3612 23.3062 13.1958 23.1523 12.9862 23.054L12.774 23.5067L12.5617 23.9595C12.584 23.9699 12.6078 23.9871 12.6343 24.0292L13.0578 23.7635ZM12.774 23.5067L12.9862 23.054L12.8124 22.9725L12.6001 23.4252L12.3879 23.8779L12.5617 23.9595L12.774 23.5067ZM12.6001 23.4252L12.8124 22.9725L12.6385 22.891L12.4263 23.3437L12.214 23.7964L12.3879 23.8779L12.6001 23.4252ZM12.4263 23.3437L12.6385 22.891C12.5378 22.8438 12.4355 22.7896 12.3314 22.7281L12.077 23.1585L11.8226 23.589C11.9524 23.6657 12.0829 23.7349 12.214 23.7964L12.4263 23.3437ZM12.077 23.1585L12.3314 22.7281L12.1559 22.6244L11.9015 23.0548L11.6471 23.4853L11.8226 23.589L12.077 23.1585ZM11.9015 23.0548L12.1559 22.6244L11.9805 22.5207L11.7261 22.9512L11.4717 23.3816L11.6471 23.4853L11.9015 23.0548ZM11.7261 22.9512L11.9805 22.5207C11.9753 22.5176 11.9726 22.5155 11.9716 22.5146C11.9707 22.5138 11.9707 22.5137 11.9711 22.5142C11.9715 22.5147 11.9715 22.5148 11.971 22.5139C11.9705 22.513 11.9692 22.5102 11.9675 22.5048L11.4902 22.6538L11.0129 22.8029C11.0903 23.0507 11.2487 23.2498 11.4717 23.3816L11.7261 22.9512ZM11.4902 22.6538L11.9675 22.5048L11.907 22.3112L11.4297 22.4602L10.9525 22.6092L11.0129 22.8029L11.4902 22.6538ZM11.4297 22.4602L11.907 22.3112L11.8465 22.1175L11.3693 22.2666L10.892 22.4156L10.9525 22.6092L11.4297 22.4602ZM11.3693 22.2666L11.8465 22.1175C11.7965 21.9574 11.7314 21.8034 11.6513 21.6559L11.2119 21.8946L10.7726 22.1333C10.8216 22.2236 10.8614 22.3175 10.892 22.4156L11.3693 22.2666ZM11.2119 21.8946L11.6513 21.6559L11.5544 21.4777L11.1151 21.7164L10.6757 21.9551L10.7726 22.1333L11.2119 21.8946ZM11.1151 21.7164L11.5544 21.4777L11.4576 21.2994L11.0182 21.5381L10.5789 21.7768L10.6757 21.9551L11.1151 21.7164ZM11.0182 21.5381L11.4576 21.2994C11.443 21.2726 11.4388 21.2511 11.4427 21.22L10.9465 21.1581L10.4504 21.0962C10.4207 21.3341 10.4643 21.566 10.5789 21.7768L11.0182 21.5381ZM10.9465 21.1581L11.4427 21.22L11.4679 21.0183L10.9717 20.9564L10.4756 20.8945L10.4504 21.0962L10.9465 21.1581ZM10.9717 20.9564L11.4679 21.0183L11.493 20.8165L10.9969 20.7546L10.5007 20.6927L10.4756 20.8945L10.9717 20.9564ZM10.9969 20.7546L11.493 20.8165C11.5061 20.7116 11.5279 20.6127 11.5578 20.5193L11.0817 20.3667L10.6055 20.2142C10.5559 20.3689 10.5212 20.5287 10.5007 20.6927L10.9969 20.7546ZM11.0817 20.3667L11.5578 20.5193L11.6175 20.3332L11.1413 20.1806L10.6652 20.028L10.6055 20.2142L11.0817 20.3667ZM11.1413 20.1806L11.6175 20.3332L11.6771 20.1471L11.201 19.9945L10.7248 19.8419L10.6652 20.028L11.1413 20.1806ZM11.201 19.9945L11.6771 20.1471C11.709 20.0477 11.7481 19.9521 11.7945 19.8601L11.348 19.6351L10.9015 19.41C10.8314 19.5491 10.7725 19.6931 10.7248 19.8419L11.201 19.9945ZM11.348 19.6351L11.7945 19.8601L11.8818 19.6868L11.4353 19.4618L10.9888 19.2368L10.9015 19.41L11.348 19.6351ZM11.4353 19.4618L11.8818 19.6868L11.9691 19.5135L11.5226 19.2885L11.0761 19.0635L10.9888 19.2368L11.4353 19.4618ZM11.5226 19.2885L11.9691 19.5135C12.0051 19.4421 12.0499 19.3789 12.1042 19.3223L11.7434 18.9761L11.3827 18.6299C11.259 18.7588 11.1566 18.9038 11.0761 19.0635L11.5226 19.2885ZM11.7434 18.9761L12.1042 19.3223L12.2377 19.1832L11.8769 18.837L11.5162 18.4908L11.3827 18.6299L11.7434 18.9761ZM11.8769 18.837L12.2377 19.1832L12.3712 19.044L12.0104 18.6979L11.6496 18.3517L11.5162 18.4908L11.8769 18.837ZM12.0104 18.6979L12.3712 19.044C12.4728 18.9382 12.5691 18.8263 12.6601 18.7086L12.2645 18.4027L11.869 18.0969C11.7992 18.1872 11.7261 18.272 11.6496 18.3517L12.0104 18.6979ZM12.2645 18.4027L12.6601 18.7086L12.7807 18.5526L12.3851 18.2467L11.9896 17.9409L11.869 18.0969L12.2645 18.4027ZM12.3851 18.2467L12.7807 18.5526L12.9013 18.3966L12.5057 18.0907L12.1102 17.7849L11.9896 17.9409L12.3851 18.2467ZM12.5057 18.0907L12.9013 18.3966C12.924 18.3672 12.9485 18.3492 12.9839 18.3362L12.8118 17.8667L12.6397 17.3973C12.4278 17.475 12.2483 17.6063 12.1102 17.7849L12.5057 18.0907ZM12.8118 17.8667L12.9839 18.3362L13.1694 18.2682L12.9973 17.7987L12.8251 17.3293L12.6397 17.3973L12.8118 17.8667ZM12.9973 17.7987L13.1694 18.2682L13.3549 18.2002L13.1827 17.7307L13.0106 17.2613L12.8251 17.3293L12.9973 17.7987ZM13.1827 17.7307L13.3549 18.2002C13.4393 18.1692 13.5273 18.1487 13.6198 18.139L13.5674 17.6417L13.5151 17.1445C13.3419 17.1627 13.1734 17.2016 13.0106 17.2613L13.1827 17.7307ZM13.5674 17.6417L13.6198 18.139L13.819 18.118L13.7667 17.6208L13.7143 17.1235L13.5151 17.1445L13.5674 17.6417ZM13.7667 17.6208L13.819 18.118L14.0183 18.0971L13.9659 17.5998L13.9136 17.1025L13.7143 17.1235L13.7667 17.6208ZM13.9659 17.5998L14.0183 18.0971C14.3096 18.0664 14.5423 17.9118 14.7006 17.6866L14.2915 17.3991L13.8824 17.1116C13.8736 17.1242 13.8731 17.1206 13.8846 17.1135C13.8899 17.1102 13.896 17.1074 13.9021 17.1053C13.9082 17.1033 13.9123 17.1027 13.9136 17.1025L13.9659 17.5998ZM14.2915 17.3991L14.7006 17.6866L14.8269 17.5069L14.4178 17.2194L14.0087 16.9319L13.8824 17.1116L14.2915 17.3991ZM14.4178 17.2194L14.8269 17.5069L14.9532 17.3272L14.5441 17.0397L14.135 16.7522L14.0087 16.9319L14.4178 17.2194ZM14.5441 17.0397L14.9532 17.3272C14.9489 17.3333 14.9223 17.3663 14.8667 17.3869C14.8118 17.4072 14.7724 17.3992 14.7694 17.3985L14.8872 16.9126L15.0051 16.4266C14.8575 16.3909 14.6886 16.3865 14.5193 16.4492C14.3494 16.5121 14.2235 16.6263 14.135 16.7522L14.5441 17.0397ZM14.8872 16.9126L14.7694 17.3985L14.9863 17.4511L15.1041 16.9651L15.2219 16.4792L15.0051 16.4266L14.8872 16.9126ZM15.1041 16.9651L14.9863 17.4511L15.2031 17.5037L15.321 17.0177L15.4388 16.5318L15.2219 16.4792L15.1041 16.9651ZM15.321 17.0177L15.2031 17.5037C15.4312 17.559 15.674 17.556 15.906 17.4563L15.7087 16.9969L15.5113 16.5375C15.5108 16.5378 15.508 16.5391 15.4995 16.5395C15.4902 16.54 15.4707 16.5396 15.4388 16.5318L15.321 17.0177ZM15.7087 16.9969L15.906 17.4563L16.0769 17.3829L15.8795 16.9235L15.6821 16.4641L15.5113 16.5375L15.7087 16.9969ZM15.8795 16.9235L16.0769 17.3829L16.2477 17.3095L16.0503 16.8501L15.853 16.3907L15.6821 16.4641L15.8795 16.9235ZM16.0503 16.8501L16.2477 17.3095C16.3093 17.2831 16.3726 17.2678 16.4403 17.2634L16.4073 16.7644L16.3744 16.2655C16.1938 16.2775 16.0192 16.3193 15.853 16.3907L16.0503 16.8501ZM16.4073 16.7644L16.4403 17.2634L16.6264 17.2511L16.5935 16.7521L16.5605 16.2532L16.3744 16.2655L16.4073 16.7644ZM16.5935 16.7521L16.6264 17.2511L16.8126 17.2388L16.7796 16.7399L16.7467 16.2409L16.5605 16.2532L16.5935 16.7521ZM16.7796 16.7399L16.8126 17.2388C17.0232 17.2249 17.2196 17.1584 17.3974 17.0501L17.1372 16.6231L16.8771 16.1961C16.8262 16.2271 16.7843 16.2385 16.7467 16.2409L16.7796 16.7399ZM17.1372 16.6231L17.3974 17.0501L17.5689 16.9456L17.3087 16.5186L17.0486 16.0916L16.8771 16.1961L17.1372 16.6231ZM17.3087 16.5186L17.5689 16.9456L17.7404 16.8411L17.4802 16.4141L17.2201 15.9871L17.0486 16.0916L17.3087 16.5186ZM17.4802 16.4141L17.7404 16.8411C17.7466 16.8373 17.7509 16.8354 17.7531 16.8345C17.7543 16.834 17.7551 16.8337 17.7556 16.8336C17.756 16.8335 17.7562 16.8334 17.7563 16.8334C17.7563 16.8334 17.7563 16.8334 17.7563 16.8334C17.7563 16.8334 17.7563 16.8334 17.7563 16.8334C17.7563 16.8334 17.7563 16.8334 17.7564 16.8334C17.7564 16.8334 17.7566 16.8334 17.7568 16.8334C17.7573 16.8334 17.7595 16.8334 17.7635 16.834L17.8429 16.3404L17.9224 15.8467C17.6727 15.8066 17.432 15.858 17.2201 15.9871L17.4802 16.4141ZM17.8429 16.3404L17.7635 16.834L17.9547 16.8648L18.0341 16.3711L18.1136 15.8775L17.9224 15.8467L17.8429 16.3404ZM18.0341 16.3711L17.9547 16.8648L18.1459 16.8956L18.2253 16.4019L18.3048 15.9083L18.1136 15.8775L18.0341 16.3711ZM18.2253 16.4019L18.1459 16.8956C18.3663 16.931 18.5841 16.9044 18.7893 16.82L18.5992 16.3576L18.4091 15.8951C18.3708 15.9109 18.3393 15.9138 18.3048 15.9083L18.2253 16.4019ZM18.5992 16.3576L18.7893 16.82L18.972 16.7449L18.7819 16.2825L18.5918 15.82L18.4091 15.8951L18.5992 16.3576ZM18.7819 16.2825L18.972 16.7449L19.1546 16.6699L18.9645 16.2074L18.7744 15.745L18.5918 15.82L18.7819 16.2825ZM18.9645 16.2074L19.1546 16.6699C19.1809 16.6591 19.1925 16.6579 19.1914 16.658C19.1906 16.6581 19.1865 16.6585 19.1798 16.658C19.1729 16.6575 19.1643 16.6562 19.1546 16.6535L19.289 16.1719L19.4233 15.6903C19.19 15.6252 18.9642 15.667 18.7744 15.745L18.9645 16.2074ZM19.289 16.1719L19.1546 16.6535L19.2964 16.693L19.4308 16.2114L19.5651 15.7298L19.4233 15.6903L19.289 16.1719ZM19.4308 16.2114L19.2964 16.693L19.4382 16.7326L19.5726 16.251L19.7069 15.7694L19.5651 15.7298L19.4308 16.2114ZM19.5726 16.251L19.4382 16.7326C19.4897 16.747 19.5538 16.7633 19.6148 16.7712C19.6373 16.7741 19.707 16.783 19.7892 16.7691C19.8288 16.7624 19.9228 16.7424 20.0168 16.6702C20.1337 16.5803 20.2144 16.4359 20.2144 16.2693L19.7144 16.2693L19.2144 16.2693C19.2144 16.1063 19.2935 15.9648 19.4075 15.8772C19.4985 15.8073 19.5881 15.7889 19.6218 15.7832C19.6628 15.7762 19.6948 15.7765 19.7092 15.7769C19.7258 15.7774 19.7378 15.7788 19.7431 15.7795C19.7568 15.7813 19.7499 15.7814 19.7069 15.7694L19.5726 16.251ZM19.7144 16.2693L20.2144 16.2693L20.2144 16.2481L19.7144 16.2481L19.2144 16.2481L19.2144 16.2693L19.7144 16.2693ZM19.7144 16.2481L20.2144 16.2481V16.2269L19.7144 16.2269L19.2144 16.2269V16.2481L19.7144 16.2481ZM19.7144 16.2269L20.2144 16.2269C20.2144 16.3224 20.1863 16.4284 20.117 16.5221C20.0516 16.6104 19.9719 16.6577 19.9153 16.6821C19.8154 16.7252 19.7296 16.7222 19.7116 16.7217C19.6808 16.7208 19.6585 16.717 19.6509 16.7156C19.6413 16.7139 19.6356 16.7124 19.6354 16.7123C19.6351 16.7122 19.6422 16.7141 19.6593 16.7199C19.6755 16.7253 19.6968 16.7329 19.724 16.743L19.8989 16.2746L20.0738 15.8062C20.0093 15.7821 19.9429 15.7589 19.8856 15.7441C19.8638 15.7385 19.8069 15.724 19.7401 15.7221C19.7145 15.7214 19.6229 15.7192 19.5192 15.7639C19.4606 15.7892 19.3795 15.8376 19.3132 15.9272C19.2429 16.0221 19.2144 16.1296 19.2144 16.2269L19.7144 16.2269ZM19.8989 16.2746L19.724 16.743L19.9085 16.8119L20.0834 16.3435L20.2583 15.8751L20.0738 15.8062L19.8989 16.2746ZM19.3393 18.5622L19.3248 18.0625L19.1373 18.0679L19.1517 18.5677L19.1662 19.0675L19.3538 19.062L19.3393 18.5622ZM19.1517 18.5677L19.1373 18.0679C19.038 18.0708 18.936 18.0661 18.831 18.0534L18.7711 18.5498L18.7112 19.0462C18.8637 19.0646 19.0155 19.0718 19.1662 19.0675L19.1517 18.5677ZM18.7711 18.5498L18.831 18.0534L18.6379 18.0301L18.578 18.5265L18.5181 19.0229L18.7112 19.0462L18.7711 18.5498ZM18.578 18.5265L18.6379 18.0301L18.4449 18.0068L18.3849 18.5032L18.325 18.9996L18.5181 19.0229L18.578 18.5265ZM18.3849 18.5032L18.4449 18.0068C18.2067 17.978 17.9769 18.0268 17.7707 18.1449L18.0192 18.5788L18.2677 19.0126C18.2917 18.9989 18.3058 18.9973 18.325 18.9996L18.3849 18.5032ZM18.0192 18.5788L17.7707 18.1449L17.5981 18.2438L17.8466 18.6776L18.0951 19.1115L18.2677 19.0126L18.0192 18.5788ZM17.8466 18.6776L17.5981 18.2438L17.4254 18.3427L17.674 18.7765L17.9225 19.2104L18.0951 19.1115L17.8466 18.6776ZM17.674 18.7765L17.4254 18.3427C17.3474 18.3874 17.272 18.4175 17.1988 18.4359L17.3205 18.9208L17.4423 19.4058C17.6101 19.3636 17.7703 19.2975 17.9225 19.2104L17.674 18.7765ZM17.3205 18.9208L17.1988 18.4359L17.018 18.4813L17.1398 18.9662L17.2615 19.4512L17.4423 19.4058L17.3205 18.9208ZM17.1398 18.9662L17.018 18.4813L16.8372 18.5267L16.959 19.0116L17.0807 19.4966L17.2615 19.4512L17.1398 18.9662ZM16.959 19.0116L16.8372 18.5267C16.6578 18.5717 16.4908 18.6478 16.3395 18.7542L16.6269 19.1633L16.9143 19.5725C16.9646 19.5371 17.0191 19.512 17.0807 19.4966L16.959 19.0116ZM16.6269 19.1633L16.3395 18.7542L16.1881 18.8605L16.4755 19.2696L16.7629 19.6788L16.9143 19.5725L16.6269 19.1633ZM16.4755 19.2696L16.1881 18.8605L16.0368 18.9668L16.3242 19.3759L16.6116 19.7851L16.7629 19.6788L16.4755 19.2696ZM16.3242 19.3759L16.0368 18.9668C15.9767 19.009 15.9008 19.0489 15.8047 19.0837L15.9748 19.5539L16.145 20.024C16.313 19.9632 16.4699 19.8846 16.6116 19.7851L16.3242 19.3759ZM15.9748 19.5539L15.8047 19.0837L15.6067 19.1554L15.7768 19.6255L15.9469 20.0957L16.145 20.024L15.9748 19.5539ZM15.7768 19.6255L15.6067 19.1554L15.4086 19.227L15.5788 19.6972L15.7489 20.1674L15.9469 20.0957L15.7768 19.6255ZM15.5788 19.6972L15.4086 19.227C15.2697 19.2773 15.1091 19.3738 15.0068 19.553C14.9032 19.7343 14.9025 19.9241 14.9342 20.0732L15.4233 19.9693L15.9124 19.8653C15.9157 19.8809 15.9268 19.9585 15.875 20.0491C15.8245 20.1376 15.7558 20.1649 15.7489 20.1674L15.5788 19.6972ZM15.4233 19.9693L14.9342 20.0732L14.9768 20.2736L15.4659 20.1697L15.955 20.0657L15.9124 19.8653L15.4233 19.9693ZM15.4659 20.1697L14.9768 20.2736L15.0194 20.474L15.5085 20.3701L15.9976 20.2661L15.955 20.0657L15.4659 20.1697ZM15.5085 20.3701L15.0194 20.474C15.0604 20.6669 15.1356 20.8495 15.2538 21.0105L15.6569 20.7147L16.06 20.4189C16.037 20.3876 16.0133 20.3404 15.9976 20.2661L15.5085 20.3701ZM15.6569 20.7147L15.2538 21.0105L15.3597 21.1548L15.7628 20.8589L16.1659 20.5631L16.06 20.4189L15.6569 20.7147ZM15.7628 20.8589L15.3597 21.1548L15.4655 21.299L15.8686 21.0032L16.2717 20.7073L16.1659 20.5631L15.7628 20.8589ZM15.8686 21.0032L15.4655 21.299C15.5727 21.4451 15.704 21.568 15.8552 21.6681L16.1312 21.2512L16.4073 20.8343C16.3494 20.796 16.3057 20.7536 16.2717 20.7073L15.8686 21.0032ZM16.1312 21.2512L15.8552 21.6681L16.0119 21.7719L16.288 21.355L16.564 20.9381L16.4073 20.8343L16.1312 21.2512ZM16.288 21.355L16.0119 21.7719L16.1687 21.8757L16.4447 21.4588L16.7208 21.0419L16.564 20.9381L16.288 21.355ZM16.4447 21.4588L16.1687 21.8757C16.3428 21.991 16.5373 22.0587 16.7445 22.0785L16.792 21.5808L16.8395 21.083C16.7926 21.0785 16.7556 21.065 16.7208 21.0419L16.4447 21.4588ZM16.792 21.5808L16.7445 22.0785L16.935 22.0967L16.9825 21.5989L17.03 21.1012L16.8395 21.083L16.792 21.5808ZM16.9825 21.5989L16.935 22.0967L17.1254 22.1149L17.1729 21.6171L17.2204 21.1194L17.03 21.1012L16.9825 21.5989ZM17.1729 21.6171L17.1254 22.1149C17.1556 22.1177 17.1892 22.128 17.2321 22.1597L17.5289 21.7573L17.8256 21.3548C17.648 21.2239 17.4443 21.1407 17.2204 21.1194L17.1729 21.6171ZM17.5289 21.7573L17.2321 22.1597L17.3976 22.2817L17.6943 21.8792L17.991 21.4768L17.8256 21.3548L17.5289 21.7573ZM17.6943 21.8792L17.3976 22.2817L17.563 22.4036L17.8597 22.0012L18.1564 21.5988L17.991 21.4768L17.6943 21.8792ZM17.8597 22.0012L17.563 22.4036C17.7815 22.5647 18.0428 22.629 18.3152 22.5764L18.2204 22.0855L18.1256 21.5945C18.1243 21.5948 18.1261 21.5943 18.1305 21.5944C18.135 21.5944 18.1405 21.595 18.1463 21.5964C18.1521 21.5977 18.1564 21.5994 18.1587 21.6005C18.1609 21.6015 18.1601 21.6015 18.1564 21.5988L17.8597 22.0012ZM18.2204 22.0855L18.3152 22.5764L18.5105 22.5387L18.4157 22.0478L18.3209 21.5568L18.1256 21.5945L18.2204 22.0855ZM18.4157 22.0478L18.5105 22.5387L18.7058 22.501L18.611 22.01L18.5162 21.5191L18.3209 21.5568L18.4157 22.0478ZM18.611 22.01L18.7058 22.501C18.8217 22.4786 18.9335 22.4623 19.0416 22.4517L18.9929 21.9541L18.9443 21.4565C18.8035 21.4702 18.6608 21.4912 18.5162 21.5191L18.611 22.01ZM18.9929 21.9541L19.0416 22.4517L19.2282 22.4335L19.1795 21.9358L19.1308 21.4382L18.9443 21.4565L18.9929 21.9541ZM19.1795 21.9358L19.2282 22.4335L19.4148 22.4152L19.3661 21.9176L19.3174 21.42L19.1308 21.4382L19.1795 21.9358ZM19.3661 21.9176L19.4148 22.4152C19.4479 22.412 19.4893 22.4158 19.5461 22.44L19.742 21.9799L19.9378 21.5199C19.7422 21.4366 19.5331 21.3989 19.3174 21.42L19.3661 21.9176ZM19.742 21.9799L19.5461 22.44L19.7354 22.5206L19.9312 22.0605L20.1271 21.6005L19.9378 21.5199L19.742 21.9799ZM19.9312 22.0605L19.7354 22.5206L19.9247 22.6011L20.1205 22.1411L20.3164 21.681L20.1271 21.6005L19.9312 22.0605ZM20.1205 22.1411L19.9247 22.6011C20.1194 22.684 20.3267 22.7219 20.5404 22.7046L20.5 22.2062L20.4596 21.7079C20.4197 21.7111 20.374 21.7056 20.3164 21.681L20.1205 22.1411ZM20.5 22.2062L20.5404 22.7046L20.7306 22.6892L20.6902 22.1908L20.6498 21.6925L20.4596 21.7079L20.5 22.2062ZM20.6902 22.1908L20.7306 22.6892L20.9208 22.6738L20.8804 22.1754L20.8401 21.6771L20.6498 21.6925L20.6902 22.1908ZM20.8804 22.1754L20.9208 22.6738C21.1147 22.6581 21.2997 22.6044 21.473 22.5164L21.2465 22.0707L21.0199 21.6249C20.9588 21.656 20.8998 21.6722 20.8401 21.6771L20.8804 22.1754ZM21.2465 22.0707L21.473 22.5164L21.6488 22.427L21.4223 21.9813L21.1957 21.5356L21.0199 21.6249L21.2465 22.0707ZM21.4223 21.9813L21.6488 22.427L21.8246 22.3377L21.5981 21.8919L21.3715 21.4462L21.1957 21.5356L21.4223 21.9813ZM21.5981 21.8919L21.8246 22.3377C21.9123 22.2931 21.9981 22.2604 22.0822 22.2381L21.9539 21.7548L21.8256 21.2715C21.6697 21.3129 21.5182 21.3716 21.3715 21.4462L21.5981 21.8919ZM21.9539 21.7548L22.0822 22.2381L22.2622 22.1903L22.1339 21.707L22.0057 21.2237L21.8256 21.2715L21.9539 21.7548ZM22.1339 21.707L22.2622 22.1903L22.4423 22.1425L22.314 21.6592L22.1857 21.176L22.0057 21.2237L22.1339 21.707ZM22.314 21.6592L22.4423 22.1425C22.541 22.1163 22.6463 22.0953 22.7587 22.08L22.6913 21.5846L22.6238 21.0891C22.4732 21.1097 22.327 21.1384 22.1857 21.176L22.314 21.6592ZM22.6913 21.5846L22.7587 22.08L22.956 22.0532L22.8885 21.5577L22.8211 21.0623L22.6238 21.0891L22.6913 21.5846ZM22.8885 21.5577L22.956 22.0532L23.1532 22.0263L23.0858 21.5309L23.0183 21.0354L22.8211 21.0623L22.8885 21.5577ZM23.0858 21.5309L23.1532 22.0263C23.2985 22.0065 23.4439 21.9514 23.5699 21.8478C23.6946 21.7453 23.7754 21.6159 23.8252 21.4848L23.3577 21.3073L22.8903 21.1298C22.8903 21.1299 22.9008 21.1033 22.9349 21.0753C22.9702 21.0463 23.0045 21.0373 23.0183 21.0354L23.0858 21.5309ZM23.3577 21.3073L23.8252 21.4848L23.8998 21.2881L23.4324 21.1106L22.965 20.9331L22.8903 21.1298L23.3577 21.3073ZM23.4324 21.1106L23.8998 21.2881L23.9745 21.0914L23.5071 20.9139L23.0397 20.7364L22.965 20.9331L23.4324 21.1106ZM23.5071 20.9139L23.9745 21.0914C24.0259 20.9562 24.0674 20.8399 24.0972 20.7454L23.6205 20.5948L23.1437 20.4442C23.122 20.5129 23.0879 20.6093 23.0397 20.7364L23.5071 20.9139ZM23.6205 20.5948L24.0972 20.7454L24.1359 20.623L23.6591 20.4724L23.1823 20.3218L23.1437 20.4442L23.6205 20.5948ZM23.6591 20.4724L24.1359 20.623L24.1746 20.5006L23.6978 20.35L23.221 20.1994L23.1823 20.3218L23.6591 20.4724ZM23.6978 20.35L24.1746 20.5006C24.2204 20.3555 24.2378 20.1908 24.2426 20.0283L23.7428 20.0134L23.2431 19.9985C23.2394 20.1216 23.2267 20.1813 23.221 20.1994L23.6978 20.35ZM23.7428 20.0134L24.2426 20.0283L24.249 19.8141L23.7492 19.7992L23.2495 19.7843L23.2431 19.9985L23.7428 20.0134ZM23.7492 19.7992L24.249 19.8141L24.2554 19.5999L23.7556 19.585L23.2558 19.5701L23.2495 19.7843L23.7492 19.7992ZM23.7556 19.585L24.2554 19.5999C24.2647 19.2884 24.1267 19.007 23.8465 18.8375L23.5877 19.2653L23.3289 19.6931C23.3193 19.6873 23.2938 19.6678 23.2742 19.6305C23.2553 19.5944 23.2559 19.5685 23.2558 19.5701L23.7556 19.585ZM23.5877 19.2653L23.8465 18.8375L23.6722 18.7321L23.4134 19.1599L23.1546 19.5877L23.3289 19.6931L23.5877 19.2653ZM23.4134 19.1599L23.6722 18.7321L23.4979 18.6266L23.2391 19.0544L22.9803 19.4823L23.1546 19.5877L23.4134 19.1599ZM23.2391 19.0544L23.4979 18.6266C23.3649 18.5462 23.2288 18.4745 23.0897 18.412L22.8847 18.8681L22.6798 19.3241C22.7808 19.3695 22.8809 19.4221 22.9803 19.4823L23.2391 19.0544ZM22.8847 18.8681L23.0897 18.412L22.9096 18.3311L22.7047 18.7871L22.4997 19.2432L22.6798 19.3241L22.8847 18.8681ZM22.7047 18.7871L22.9096 18.3311L22.7295 18.2502L22.5246 18.7062L22.3196 19.1623L22.4997 19.2432L22.7047 18.7871ZM22.5246 18.7062L22.7295 18.2502C22.5109 18.1519 22.2782 18.129 22.0473 18.1721L22.139 18.6636L22.2306 19.1552C22.2737 19.1471 22.2981 19.1526 22.3196 19.1623L22.5246 18.7062ZM22.139 18.6636L22.0473 18.1721L21.8418 18.2104L21.9334 18.702L22.0251 19.1935L22.2306 19.1552L22.139 18.6636ZM21.9334 18.702L21.8418 18.2104L21.6362 18.2488L21.7279 18.7403L21.8196 19.2318L22.0251 19.1935L21.9334 18.702ZM21.7279 18.7403L21.6362 18.2488C21.5746 18.2603 21.533 18.2547 21.501 18.244L21.3418 18.7179L21.1825 19.1919C21.3914 19.2621 21.6071 19.2714 21.8196 19.2318L21.7279 18.7403ZM21.3418 18.7179L21.501 18.244L21.3204 18.1833L21.1611 18.6573L21.0019 19.1312L21.1825 19.1919L21.3418 18.7179ZM21.1611 18.6573L21.3204 18.1833L21.1397 18.1226L20.9805 18.5966L20.8212 19.0705L21.0019 19.1312L21.1611 18.6573ZM20.9805 18.5966L21.1397 18.1226C20.9773 18.068 20.8102 18.0357 20.6396 18.0261L20.6115 18.5253L20.5834 19.0245C20.6639 19.029 20.7428 19.0442 20.8212 19.0705L20.9805 18.5966ZM20.6115 18.5253L20.6396 18.0261L20.4512 18.0155L20.4231 18.5147L20.395 19.0139L20.5834 19.0245L20.6115 18.5253ZM20.4231 18.5147L20.4512 18.0155L20.2628 18.0049L20.2347 18.5041L20.2067 19.0033L20.395 19.0139L20.4231 18.5147ZM20.2347 18.5041L20.2628 18.0049C20.1342 17.9976 19.9939 17.9951 19.8775 18.0154L19.9634 18.508L20.0493 19.0005C20.0401 19.0021 20.0472 19.0002 20.0799 18.9997C20.1098 18.9993 20.1515 19.0002 20.2067 19.0033L20.2347 18.5041ZM19.9634 18.508L19.8775 18.0154L19.7945 18.0299L19.8804 18.5224L19.9663 19.015L20.0493 19.0005L19.9634 18.508ZM19.8804 18.5224L19.7945 18.0299L19.7115 18.0443L19.7974 18.5369L19.8833 19.0295L19.9663 19.015L19.8804 18.5224ZM19.7974 18.5369L19.7115 18.0443C19.6943 18.0473 19.6352 18.0535 19.5124 18.057L19.5268 18.5568L19.5413 19.0566C19.6685 19.0529 19.7897 19.0458 19.8833 19.0295L19.7974 18.5369ZM19.5268 18.5568L19.5124 18.057L19.3248 18.0625L19.3393 18.5622L19.3538 19.062L19.5413 19.0566L19.5268 18.5568Z" fill="#FFC52B"/>
<defs>
<filter id="filter0_i_287_3836" x="5.42871" y="10.353" width="24.5713" height="18.6475" filterUnits="userSpaceOnUse" color-interpolation-filters="sRGB">
<feFlood flood-opacity="0" result="BackgroundImageFix"/>
<feBlend mode="normal" in="SourceGraphic" in2="BackgroundImageFix" result="shape"/>
<feColorMatrix in="SourceAlpha" type="matrix" values="0 0 0 0 0 0 0 0 0 0 0 0 0 0 0 0 0 0 127 0" result="hardAlpha"/>
<feOffset dx="-4" dy="-5"/>
<feGaussianBlur stdDeviation="3.05"/>
<feComposite in2="hardAlpha" operator="arithmetic" k2="-1" k3="1"/>
<feColorMatrix type="matrix" values="0 0 0 0 0 0 0 0 0 0 0 0 0 0 0 0 0 0 0.25 0"/>
<feBlend mode="normal" in2="shape" result="effect1_innerShadow_287_3836"/>
</filter>
<linearGradient id="paint0_linear_287_3836" x1="9.5" y1="0" x2="9.5" y2="6.96565" gradientUnits="userSpaceOnUse">
<stop stop-color="#8BBE20"/>
<stop offset="1" stop-color="#5E5E5E"/>
</linearGradient>
<linearGradient id="paint1_linear_287_3836" x1="0" y1="14.4289" x2="19" y2="14.4289" gradientUnits="userSpaceOnUse">
<stop stop-color="#8BBE20"/>
<stop offset="0.475962" stop-color="#8AD55E"/>
<stop offset="1" stop-color="#8BBE20"/>
</linearGradient>
<radialGradient id="paint2_radial_287_3836" cx="0" cy="0" r="1" gradientUnits="userSpaceOnUse" gradientTransform="translate(19.7144 26.015) rotate(-90) scale(4.10486 14.8573)">
<stop stop-color="#F09908"/>
<stop offset="1" stop-color="#B4813C"/>
</radialGradient>
<radialGradient id="paint3_radial_287_3836" cx="0" cy="0" r="1" gradientUnits="userSpaceOnUse" gradientTransform="translate(19.7144 25.5886) rotate(-90) scale(4.69131 16.2077)">
<stop stop-color="#F09908"/>
<stop offset="1" stop-color="#B4813C"/>
</radialGradient>
</defs>
</svg>
