<svg width="23" height="31" viewBox="0 0 23 31" fill="none" xmlns="http://www.w3.org/2000/svg">
<path d="M4.87215 9.95228C4.79648 9.91396 4.70926 9.89003 4.61132 9.88319C3.99522 9.83966 3.21129 10.4816 2.90922 11.2766L0.0821461 18.4037C-0.0755893 18.8187 0.000907215 19.1704 0.251016 19.2972L0.884018 19.6182C0.633909 19.4914 0.557413 19.1396 0.715148 18.7246L3.54222 11.5975C3.84429 10.8023 4.62802 10.1604 5.24411 10.2041C5.34205 10.2112 5.42927 10.2349 5.50494 10.2734L4.87215 9.95228Z" fill="#E6E6E6"/>
<path d="M5.24459 10.2045C5.86007 10.248 6.0477 10.9585 5.65037 11.747L2.207 18.8306C1.95503 19.3303 1.45914 19.6952 1.06862 19.6677C0.67789 19.6401 0.523866 19.2292 0.715417 18.7251L3.54249 11.598C3.84456 10.8028 4.62829 10.1609 5.24459 10.2045Z" fill="#A6A6A6"/>
<path d="M21.7151 13.0553L12.5655 14.514L3.41577 13.0553C3.41577 13.0553 4.29785 28.1095 10.6223 30.1578L10.6475 30.1399C11.8426 30.5003 13.3403 30.5001 14.5263 30.1381L14.5311 30.1414C14.5558 30.1335 14.5797 30.1234 14.6043 30.1149C14.828 30.0428 15.0406 29.9586 15.2358 29.8602C15.3698 29.7927 15.4874 29.7202 15.5969 29.6456C20.9539 26.3645 21.7151 13.0553 21.7151 13.0553Z" fill="#E6E6E6"/>
<path d="M19.0585 16.1313C15.4939 17.927 9.69665 17.9178 6.10956 16.1108C2.52268 14.3039 2.50453 11.3835 6.06894 9.58783C9.63355 7.7922 15.4308 7.80138 19.0179 9.60816C22.6048 11.4153 22.6229 14.3357 19.0585 16.1313Z" fill="#CACACA"/>
<path d="M6.31653 11.1562C3.26244 9.55237 3.36719 6.99683 6.55056 5.44803C9.73392 3.89923 14.7903 3.94402 17.8444 5.54769C20.8985 7.15154 20.7938 9.70709 17.6104 11.2559C14.427 12.8047 9.37062 12.7601 6.31653 11.1562Z" fill="#E6E6E6"/>
<path d="M21.5353 5.72539C21.405 5.2688 21.1471 4.57256 20.6586 3.84917C20.2355 3.22256 19.7866 2.73034 19.1571 2.20286C19.0258 2.09294 18.6629 1.80185 18.1291 1.47622C17.9845 1.38807 17.787 1.27635 17.6353 1.19773C17.4583 1.10598 17.2159 0.993362 17.0346 0.908267C17.019 0.900891 16.6424 0.725304 15.996 0.517154C15.5956 0.388162 15.2709 0.314942 15.0096 0.256293C14.7329 0.193866 14.2374 0.113628 14.0607 0.0943784C13.9209 0.0790865 13.735 0.0538999 13.5943 0.044365C12.9974 0.00406631 12.9861 0.0031662 12.6729 0.000467626C11.8793 -0.00654866 11.0908 0.0654135 10.3295 0.214734C10.1739 0.245318 9.96622 0.287235 9.81364 0.328433C9.5192 0.407951 9.12909 0.521292 8.84084 0.616821C8.66125 0.67637 8.42805 0.7701 8.25464 0.842242C8.10309 0.905208 7.90638 0.998759 7.75772 1.06712C7.55339 1.16121 7.29441 1.30766 7.10142 1.41866C6.95544 1.50267 6.76945 1.62591 6.62862 1.7164C6.40553 1.8596 6.135 2.08071 5.92861 2.2419C5.6818 2.43476 5.38736 2.72513 5.18158 2.9518C4.95147 3.20529 4.67415 3.56348 4.4795 3.83856C4.37146 3.99147 4.2395 4.2025 4.15702 4.36693C4.00465 4.67097 3.81702 5.08277 3.69763 5.39779C3.59083 5.6797 3.49433 6.06865 3.44505 6.36244C3.38835 6.7012 3.35082 7.15798 3.34546 7.50015C3.34546 7.50321 3.34484 7.82542 3.41268 8.12424C3.48361 8.43602 3.54031 8.56987 3.64361 8.81256C3.7034 8.95306 3.81124 9.13045 3.89145 9.26304C3.94094 9.3449 4.01908 9.44816 4.07558 9.52642C4.19476 9.69157 4.37909 9.8981 4.53064 10.0417C4.7958 10.293 4.90549 10.397 5.3422 10.7068C5.57479 10.8719 5.91314 11.0601 6.16531 11.2017C6.79151 11.5255 7.25503 11.693 7.34142 11.7232C7.67999 11.8418 8.13835 11.9845 8.48454 12.0843C8.6732 12.1386 8.93074 12.194 9.12311 12.237C9.57384 12.3374 10.7939 12.5726 12.3859 12.5875C12.7861 12.5913 13.3197 12.5675 13.7193 12.5477C13.9197 12.5378 14.1853 12.5065 14.3849 12.4886C14.4546 12.4823 15.1243 12.4053 15.6944 12.2905C15.8977 12.2496 16.1692 12.1957 16.3686 12.1421C16.7241 12.0469 17.1938 11.9082 17.5425 11.7952C17.7371 11.7321 17.9885 11.6299 18.1761 11.5523C18.3336 11.487 18.539 11.3919 18.6922 11.3192C18.8788 11.2307 19.1186 11.0984 19.2961 10.9968C19.4237 10.9237 19.5854 10.8156 19.7089 10.7375C19.8792 10.6298 20.0869 10.4637 20.2415 10.3392C20.4083 10.205 20.6128 10.0087 20.7551 9.85421C20.8972 9.69967 21.0683 9.4809 21.1865 9.31179C21.2454 9.2276 21.3182 9.1121 21.3638 9.02179C21.4448 8.86113 21.5463 8.64381 21.6079 8.47668C21.6531 8.35398 21.7341 8.09366 21.7696 7.72773C21.7737 7.69157 21.8521 6.83451 21.5353 5.72539Z" fill="#E6E6E6"/>
<path d="M9.29057 11.5697L4.61666 9.21514C4.34098 9.07625 4.11768 8.70385 4.11768 8.38326C4.11768 6.9451 5.11976 6.28431 6.35587 6.90696L7.55136 7.50928C8.78747 8.13193 9.78955 9.80252 9.78955 11.2407C9.78955 11.5611 9.56604 11.7084 9.29057 11.5697Z" fill="#1D1D1C"/>
<path d="M6.30336 8.8016C6.30336 9.23966 5.94871 9.41615 5.51118 9.19577C5.07364 8.97539 4.71899 8.44143 4.71899 8.00336C4.71899 7.56529 5.07364 7.38881 5.51118 7.60919C5.94871 7.82975 6.30336 8.36353 6.30336 8.8016Z" fill="#1381F2"/>
<path d="M5.99872 8.64795C5.99872 8.91762 5.78036 9.02629 5.51108 8.89046C5.24179 8.75481 5.02344 8.42612 5.02344 8.15663C5.02344 7.88695 5.24179 7.77829 5.51108 7.91412C5.78036 8.04976 5.99872 8.37827 5.99872 8.64795Z" fill="#0F6ADC"/>
<path d="M8.67006 9.97823C8.67006 10.4163 8.31541 10.5928 7.87787 10.3724C7.44034 10.152 7.08569 9.61806 7.08569 9.18C7.08569 8.74193 7.44034 8.56544 7.87787 8.78583C8.31541 9.00639 8.67006 9.54016 8.67006 9.97823Z" fill="#1381F2"/>
<path d="M8.36591 9.82483C8.36591 10.0945 8.14755 10.203 7.87827 10.0673C7.60898 9.93169 7.39062 9.60301 7.39062 9.33351C7.39062 9.06383 7.60898 8.95517 7.87827 9.091C8.14755 9.22646 8.36591 9.55515 8.36591 9.82483Z" fill="#0F6ADC"/>
<path d="M17.7932 19.5158C17.7932 20.3435 18.4633 20.6769 19.2901 20.2604C20.117 19.8439 20.7871 18.8354 20.7871 18.0076C20.7871 17.1799 20.117 16.8465 19.2901 17.263C18.4633 17.6795 17.7932 18.688 17.7932 19.5158Z" fill="#E6E6E6"/>
<path d="M18.1155 19.0787C18.1155 19.4892 18.4479 19.6547 18.858 19.448C19.2681 19.2415 19.6005 18.7412 19.6005 18.3304C19.6005 17.9199 19.2679 17.7544 18.858 17.9611C18.4479 18.1678 18.1155 18.6681 18.1155 19.0787Z" fill="#CACACA"/>
<path d="M19.3473 18.1469C19.2426 18.0939 19.0976 18.1012 18.9368 18.1822C18.6168 18.3434 18.3588 18.7333 18.3599 19.0522C18.3605 19.2114 18.4248 19.3235 18.5287 19.3762L20.1618 20.2042C20.0578 20.1514 19.9935 20.0394 19.9931 19.8801C19.9921 19.5614 20.25 19.1713 20.57 19.0101C20.7306 18.9292 20.8758 18.9218 20.9805 18.9749L19.3473 18.1469Z" fill="#A6A6A6"/>
<path d="M20.5701 19.0104C20.8899 18.8492 21.1478 18.9793 21.1489 19.2983C21.1499 19.619 20.8938 20.008 20.5738 20.1692C20.254 20.3304 19.9942 20.2012 19.9932 19.8804C19.9919 19.5615 20.2501 19.1714 20.5701 19.0104Z" fill="#A6A6A6"/>
<path d="M21.0375 18.1104C20.9618 18.072 20.8746 18.0481 20.7766 18.0413C20.1603 17.9977 19.3768 18.6396 19.0747 19.4346L16.2477 26.5617C16.0899 26.9768 16.1664 27.3285 16.4165 27.4553L17.0495 27.7763C16.7996 27.6494 16.7229 27.2977 16.8807 26.8827L19.7077 19.7556C20.0098 18.9604 20.7935 18.3185 21.4096 18.3622C21.5076 18.3692 21.5948 18.393 21.6705 18.4315L21.0375 18.1104Z" fill="#E6E6E6"/>
<path d="M21.4096 18.362C22.0253 18.4055 22.2127 19.1159 21.8154 19.9045L18.372 26.988C18.1201 27.4878 17.6242 27.8526 17.2337 27.8251C16.8429 27.7974 16.6889 27.3867 16.8805 26.8826L19.7075 19.7555C20.0098 18.9603 20.7933 18.3184 21.4096 18.362Z" fill="#A6A6A6"/>
</svg>
