<svg width="10" height="11" viewBox="0 0 10 11" fill="none" xmlns="http://www.w3.org/2000/svg">
<path d="M4.23579 2.5H6.14402C6.27509 2.5 6.40092 2.55147 6.49442 2.64332L7.51503 3.64597C7.70861 3.83614 8.01853 3.83719 8.2134 3.64834L9.09268 2.7962C9.26217 2.63195 9.53215 2.6343 9.69875 2.80148C9.86566 2.96898 9.86671 3.2396 9.7011 3.40838L8.20398 4.93421C8.01423 5.12759 7.70499 5.13467 7.50659 4.95017L7.03799 4.5144C6.83918 4.32951 6.52916 4.33706 6.33958 4.5314L5.50951 5.38232C5.31888 5.57774 5.32023 5.88993 5.51254 6.08369L6.73276 7.31313C6.84885 7.43009 6.89985 7.59674 6.8691 7.75863L6.43791 10.0294C6.38794 10.2925 6.13953 10.4695 5.87451 10.4308L5.66979 10.401C5.39303 10.3606 5.2032 10.1011 5.2486 9.82507L5.53984 8.05421C5.56566 7.89726 5.51525 7.73739 5.40408 7.62362L4.58145 6.78177C4.38859 6.58441 4.07231 6.5806 3.87475 6.77325L2.69751 7.9213C2.60413 8.01236 2.47886 8.06333 2.34842 8.06333H0.5C0.223858 8.06333 0 7.83947 0 7.56333V7.43076C0 7.16778 0.203709 6.94975 0.466081 6.93191L2.0138 6.82667C2.1458 6.8177 2.26886 6.75678 2.35602 6.65725L4.73901 3.93629C4.9054 3.7463 4.77048 3.44879 4.51792 3.44879C4.44125 3.44879 4.36761 3.47875 4.31272 3.53229L3.34524 4.47596C3.17847 4.63863 2.91463 4.64562 2.73948 4.49202C2.54727 4.32346 2.53569 4.02821 2.71411 3.84512L3.8777 2.65105C3.97181 2.55447 4.10094 2.5 4.23579 2.5Z" fill="url(#paint0_linear_279_3589)"/>
<circle cx="7" cy="1.5" r="1" fill="url(#paint1_linear_279_3589)"/>
<defs>
<linearGradient id="paint0_linear_279_3589" x1="4.99999" y1="2.5" x2="4.99999" y2="10.5" gradientUnits="userSpaceOnUse">
<stop stop-color="#02923A"/>
<stop offset="1" stop-color="#8BBE20"/>
</linearGradient>
<linearGradient id="paint1_linear_279_3589" x1="7" y1="0.5" x2="7" y2="2.5" gradientUnits="userSpaceOnUse">
<stop stop-color="#02923A"/>
<stop offset="1" stop-color="#8BBE20"/>
</linearGradient>
</defs>
</svg>
