<svg width="12" height="11" viewBox="0 0 12 11" fill="none" xmlns="http://www.w3.org/2000/svg">
<path d="M2.80005 2.44678V3.84752V10.4437H9.16491C9.19143 8.19404 9.22855 3.41456 9.16491 2.29398C9.10126 1.17339 7.93171 0.638593 7.49413 0.511254C6.75819 0.502765 5.62048 0.490862 4.57027 0.511236C3.52007 0.531611 2.84646 1.81009 2.80005 2.44678Z" fill="url(#paint0_linear_279_3593)"/>
<path d="M3.81445 8.68642H8.11073M3.81445 6.92913C3.93379 6.75935 4.25203 6.41977 4.57027 6.41977C4.88852 6.41977 6.65211 6.41977 7.49413 6.41977C7.63999 6.46222 7.96752 6.62352 8.11073 6.92913M2.80005 3.84752V2.44678C2.84646 1.81009 3.52007 0.531611 4.57027 0.511236C5.62048 0.490862 6.75819 0.502765 7.49413 0.511254C7.93171 0.638593 9.10126 1.17339 9.16491 2.29398C9.22855 3.41456 9.19143 8.19404 9.16491 10.4437H2.80005V3.84752Z" stroke="white" stroke-width="0.5" stroke-linejoin="round"/>
<path d="M2.40527 5.5C3.17485 5.5 3.7988 6.07928 3.80957 6.79785H3.81152V10.5H1.80371V8.00488C1.32898 7.79348 1 7.3416 1 6.81641C1.00016 6.08938 1.62923 5.50018 2.40527 5.5Z" fill="url(#paint1_linear_279_3593)"/>
<path d="M2.40527 5.5V5.25H2.40522L2.40527 5.5ZM3.80957 6.79785L3.5596 6.8016L3.56329 7.04785H3.80957V6.79785ZM3.81152 6.79785H4.06152V6.54785H3.81152V6.79785ZM3.81152 10.5V10.75H4.06152V10.5H3.81152ZM1.80371 10.5H1.55371V10.75H1.80371V10.5ZM1.80371 8.00488H2.05371V7.84254L1.90541 7.7765L1.80371 8.00488ZM1 6.81641L0.75 6.81635V6.81641H1ZM2.40527 5.5V5.75C3.05306 5.75 3.55109 6.23398 3.5596 6.8016L3.80957 6.79785L4.05954 6.79411C4.04651 5.92458 3.29665 5.25 2.40527 5.25V5.5ZM3.80957 6.79785V7.04785H3.81152V6.79785V6.54785H3.80957V6.79785ZM3.81152 6.79785H3.56152V10.5H3.81152H4.06152V6.79785H3.81152ZM3.81152 10.5V10.25H1.80371V10.5V10.75H3.81152V10.5ZM1.80371 10.5H2.05371V8.00488H1.80371H1.55371V10.5H1.80371ZM1.80371 8.00488L1.90541 7.7765C1.51034 7.60057 1.25 7.23183 1.25 6.81641H1H0.75C0.75 7.45137 1.14763 7.98639 1.70201 8.23326L1.80371 8.00488ZM1 6.81641L1.25 6.81646C1.25013 6.2426 1.75167 5.75015 2.40533 5.75L2.40527 5.5L2.40522 5.25C1.50679 5.2502 0.750198 5.93616 0.75 6.81635L1 6.81641Z" fill="white"/>
<path d="M9.59473 5.5C8.82515 5.5 8.2012 6.07928 8.19043 6.79785H8.18848V10.5H10.1963V8.00488C10.671 7.79348 11 7.3416 11 6.81641C10.9998 6.08938 10.3708 5.50018 9.59473 5.5Z" fill="url(#paint2_linear_279_3593)"/>
<path d="M9.59473 5.5V5.25H9.59478L9.59473 5.5ZM8.19043 6.79785L8.4404 6.8016L8.43671 7.04785H8.19043V6.79785ZM8.18848 6.79785H7.93848V6.54785H8.18848V6.79785ZM8.18848 10.5V10.75H7.93848V10.5H8.18848ZM10.1963 10.5H10.4463V10.75H10.1963V10.5ZM10.1963 8.00488H9.94629V7.84254L10.0946 7.7765L10.1963 8.00488ZM11 6.81641L11.25 6.81635V6.81641H11ZM9.59473 5.5V5.75C8.94694 5.75 8.44891 6.23398 8.4404 6.8016L8.19043 6.79785L7.94046 6.79411C7.95349 5.92458 8.70335 5.25 9.59473 5.25V5.5ZM8.19043 6.79785V7.04785H8.18848V6.79785V6.54785H8.19043V6.79785ZM8.18848 6.79785H8.43848V10.5H8.18848H7.93848V6.79785H8.18848ZM8.18848 10.5V10.25H10.1963V10.5V10.75H8.18848V10.5ZM10.1963 10.5H9.94629V8.00488H10.1963H10.4463V10.5H10.1963ZM10.1963 8.00488L10.0946 7.7765C10.4897 7.60057 10.75 7.23183 10.75 6.81641H11H11.25C11.25 7.45137 10.8524 7.98639 10.298 8.23326L10.1963 8.00488ZM11 6.81641L10.75 6.81646C10.7499 6.2426 10.2483 5.75015 9.59467 5.75L9.59473 5.5L9.59478 5.25C10.4932 5.2502 11.2498 5.93616 11.25 6.81635L11 6.81641Z" fill="white"/>
<defs>
<linearGradient id="paint0_linear_279_3593" x1="6.00005" y1="0.5" x2="6.00005" y2="10.4437" gradientUnits="userSpaceOnUse">
<stop stop-color="#02923A"/>
<stop offset="1" stop-color="#8BBE20"/>
</linearGradient>
<linearGradient id="paint1_linear_279_3593" x1="2.40576" y1="5.5" x2="2.40576" y2="10.5" gradientUnits="userSpaceOnUse">
<stop stop-color="#02923A"/>
<stop offset="1" stop-color="#8BBE20"/>
</linearGradient>
<linearGradient id="paint2_linear_279_3593" x1="9.59424" y1="5.5" x2="9.59424" y2="10.5" gradientUnits="userSpaceOnUse">
<stop stop-color="#02923A"/>
<stop offset="1" stop-color="#8BBE20"/>
</linearGradient>
</defs>
</svg>
